<?xml version="1.0" encoding="UTF-8"?>
<svg version="1.1" xmlns="http://www.w3.org/2000/svg" width="240" height="237">
<path d="M0 0 C21.9195046 20.96428857 32.9964093 50.2802185 33.67993164 80.23632812 C33.18907694 111.5589936 19.68100739 139.6984715 -2.39575195 161.54492188 C-27.34661687 185.36132812 -27.34661687 185.36132812 -39.63256836 185.36132812 C-39.63256836 186.02132812 -39.63256836 186.68132812 -39.63256836 187.36132812 C-20.49256836 187.36132812 -1.35256836 187.36132812 18.36743164 187.36132812 C18.69743164 188.68132812 19.02743164 190.00132812 19.36743164 191.36132812 C18.37743164 191.36132812 17.38743164 191.36132812 16.36743164 191.36132812 C16.36743164 192.02132812 16.36743164 192.68132812 16.36743164 193.36132812 C3.82590605 194.20696637 -8.67050439 194.54769897 -21.23999023 194.54663086 C-24.15745024 194.54884703 -27.07454823 194.56718003 -29.99194336 194.5859375 C-31.8825671 194.58886772 -33.77319259 194.590855 -35.66381836 194.59179688 C-36.51818481 194.59898239 -37.37255127 194.60616791 -38.25280762 194.61357117 C-43.51982889 194.59385887 -48.35426964 193.96574166 -53.49035645 192.78843689 C-56.31341831 192.22558199 -58.78342745 192.38792774 -61.63256836 192.73632812 C-95.93708402 195.76319715 -129.19303887 190.43657519 -156.44116211 168.11523438 C-179.41948746 148.59038078 -195.73383592 121.88217551 -198.63256836 91.36132812 C-200.1995094 65.56357424 -195.8346684 42.6938525 -182.63256836 20.36132812 C-181.89780273 19.08515625 -181.89780273 19.08515625 -181.14819336 17.78320312 C-180.04760997 15.93163342 -178.8513771 14.13730657 -177.63256836 12.36132812 C-176.97256836 12.36132812 -176.31256836 12.36132812 -175.63256836 12.36132812 C-175.29225586 11.27851562 -175.29225586 11.27851562 -174.94506836 10.17382812 C-173.33993313 6.73425263 -171.41154233 4.95906466 -168.63256836 2.36132812 C-167.29691373 1.00945097 -165.96374181 -0.34488194 -164.63256836 -1.70117188 C-156.68006363 -9.63867188 -156.68006363 -9.63867188 -153.63256836 -9.63867188 C-153.63256836 -10.29867188 -153.63256836 -10.95867188 -153.63256836 -11.63867188 C-149.50529992 -14.6210004 -145.04526486 -17.10426601 -140.63256836 -19.63867188 C-139.57424805 -20.25613281 -138.51592773 -20.87359375 -137.42553711 -21.50976562 C-91.77675193 -46.2936889 -36.94704447 -34.0331642 0 0 Z M-110.31616211 -2.28710938 C-113.06908369 1.16016928 -113.70264957 5.02213306 -113.63256836 9.36132812 C-111.83551152 14.51837504 -109.29195563 19.17771637 -105.98803711 23.52539062 C-104.63256836 25.36132812 -104.63256836 25.36132812 -103.63256836 28.36132812 C-102.97256836 28.36132812 -102.31256836 28.36132812 -101.63256836 28.36132812 C-101.29225586 29.41320312 -101.29225586 29.41320312 -100.94506836 30.48632812 C-99.33362045 34.0161664 -97.74823608 37.00670866 -94.63256836 39.36132812 C-91.27583194 40.19725561 -88.07365907 40.11100532 -84.63256836 39.98632812 C-83.74311523 39.99277344 -82.85366211 39.99921875 -81.93725586 40.00585938 C-77.71904952 39.93660524 -75.25971108 39.75176717 -71.62084961 37.48632812 C-67.87056692 33.49046302 -67.87056692 33.49046302 -66.63256836 28.36132812 C-65.97256836 28.36132812 -65.31256836 28.36132812 -64.63256836 28.36132812 C-63.94420898 27.04068359 -63.94420898 27.04068359 -63.24194336 25.69335938 C-62.62834961 24.53191406 -62.01475586 23.37046875 -61.38256836 22.17382812 C-60.77928711 21.02527344 -60.17600586 19.87671875 -59.55444336 18.69335938 C-57.7929019 15.63930477 -55.87474718 13.06904407 -53.63256836 10.36132812 C-51.70457702 6.60174501 -51.10612167 3.57290165 -51.63256836 -0.63867188 C-53.74080738 -4.58016222 -55.97340198 -5.97532197 -60.07006836 -7.38867188 C-61.58080492 -7.84057916 -63.10262007 -8.25682981 -64.63256836 -8.63867188 C-65.74438477 -8.91904297 -65.74438477 -8.91904297 -66.87866211 -9.20507812 C-80.15452062 -11.29531968 -99.37800419 -11.06808998 -110.31616211 -2.28710938 Z M-29.63256836 13.36132812 C-29.63256836 14.02132812 -29.63256836 14.68132813 -29.63256836 15.36132812 C-30.23496338 15.46783691 -30.8373584 15.5743457 -31.45800781 15.68408203 C-38.576443 17.90105062 -43.34497772 29.02024732 -46.94506836 34.98632812 C-47.57735352 36.00984375 -48.20963867 37.03335938 -48.86108398 38.08789062 C-49.46243164 39.07789062 -50.0637793 40.06789063 -50.68334961 41.08789062 C-51.49799683 42.427146 -51.49799683 42.427146 -52.32910156 43.79345703 C-53.64514217 46.38609893 -54.30530358 48.47993543 -54.63256836 51.36132812 C-53.83137876 53.63077605 -53.83137876 53.63077605 -52.44506836 55.73632812 C-49.63657027 60.35303731 -49.63657027 60.35303731 -48.65209961 62.39257812 C-46.78636866 66.23810218 -44.96502044 68.24314732 -40.98266602 69.81689453 C-35.67496533 71.04649899 -30.15362264 70.40954593 -24.75756836 70.11132812 C-23.5290918 70.05847656 -22.30061523 70.005625 -21.03491211 69.95117188 C-9.24244531 70.05649713 -9.24244531 70.05649713 1.36743164 66.23632812 C3.74831652 62.81380611 4.73198494 60.4661983 4.36743164 56.36132812 C0.76665528 39.75774824 -7.94232183 25.57676222 -20.63256836 14.36132812 C-23.58921355 12.88300553 -26.37486573 13.3010003 -29.63256836 13.36132812 Z M-139.63256836 14.36132812 C-152.97053039 24.75500598 -163.79677996 41.83565243 -165.94506836 58.83398438 C-166.19954358 63.48970312 -166.19954358 63.48970312 -164.09741211 67.57226562 C-160.76256801 69.99280223 -157.7379791 70.0340817 -153.75756836 70.11132812 C-153.00813965 70.13952637 -152.25871094 70.16772461 -151.48657227 70.19677734 C-149.20182642 70.27462794 -146.91827952 70.32240117 -144.63256836 70.36132812 C-143.31772461 70.3896875 -142.00288086 70.41804688 -140.64819336 70.44726562 C-137.30509648 70.48313576 -133.97466498 70.43638181 -130.63256836 70.36132812 C-128.68350586 70.39226562 -128.68350586 70.39226562 -126.69506836 70.42382812 C-120.74133092 68.35824575 -117.39921302 62.24408785 -114.63256836 56.79882812 C-113.37281496 52.46842581 -113.78386229 49.75916864 -114.63256836 45.36132812 C-115.29256836 45.36132812 -115.95256836 45.36132812 -116.63256836 45.36132812 C-116.83881836 44.53632812 -117.04506836 43.71132812 -117.25756836 42.86132812 C-118.72841077 39.11736562 -120.59000797 36.63425673 -123.05444336 33.50585938 C-124.65857547 31.32598678 -125.92655724 29.12482217 -127.19506836 26.73632812 C-129.83104214 21.86019772 -132.30250902 17.50046825 -137.44506836 14.98632812 C-138.16694336 14.78007813 -138.88881836 14.57382812 -139.63256836 14.36132812 Z M-97.63256836 54.36132812 C-98.29256836 55.02132812 -98.95256836 55.68132812 -99.63256836 56.36132812 C-99.3105787 59.46059632 -99.3105787 59.46059632 -98.63256836 62.36132812 C-96.78531784 63.05292214 -96.78531784 63.05292214 -94.63256836 63.36132812 C-93.64256836 62.70132813 -92.65256836 62.04132813 -91.63256836 61.36132812 C-91.21590169 58.86132812 -91.21590169 58.86132812 -91.63256836 56.36132812 C-92.29256836 55.70132813 -92.95256836 55.04132813 -93.63256836 54.36132812 C-94.95256836 54.36132812 -96.27256836 54.36132812 -97.63256836 54.36132812 Z M-73.63256836 54.36132812 C-74.83095045 56.68987276 -74.83095045 56.68987276 -75.63256836 59.36132812 C-74.64256836 60.84632812 -74.64256836 60.84632812 -73.63256836 62.36132812 C-71.09048865 62.69476363 -71.09048865 62.69476363 -68.63256836 62.36132812 C-67.28852061 61.24296589 -67.28852061 61.24296589 -67.50756836 58.36132812 C-67.28852061 55.47969036 -67.28852061 55.47969036 -68.63256836 54.36132812 C-70.29873951 54.3206898 -71.96644931 54.31860712 -73.63256836 54.36132812 Z M-88.63256836 76.36132812 C-89.64719226 78.16779363 -89.64719226 78.16779363 -89.63256836 80.36132812 C-88.28152821 83.58881293 -87.43386149 85.01204651 -84.19506836 86.42382812 C-81.51118924 86.59546497 -81.51118924 86.59546497 -79.32006836 84.73632812 C-77.47352677 82.48320241 -77.47352677 82.48320241 -77.13256836 79.79882812 C-77.42889211 77.2483261 -77.42889211 77.2483261 -79.38256836 75.54882812 C-83.18825503 73.54027127 -85.13803555 74.03163959 -88.63256836 76.36132812 Z M-111.44506836 76.48632812 C-112.91656582 78.3748602 -112.91656582 78.3748602 -112.32006836 81.04882812 C-112.09319336 81.81195313 -111.86631836 82.57507813 -111.63256836 83.36132812 C-109.23537404 84.04091415 -109.23537404 84.04091415 -106.63256836 84.36132812 C-105.97256836 83.70132813 -105.31256836 83.04132813 -104.63256836 82.36132812 C-104.95455802 79.26205993 -104.95455802 79.26205993 -105.63256836 76.36132812 C-108.62271834 75.21865454 -108.62271834 75.21865454 -111.44506836 76.48632812 Z M-60.63256836 75.36132812 C-62.96648039 78.14246868 -62.96648039 78.14246868 -62.25756836 81.04882812 C-62.05131836 81.81195313 -61.84506836 82.57507813 -61.63256836 83.36132812 C-59.78531784 84.05292214 -59.78531784 84.05292214 -57.63256836 84.36132812 C-54.58508929 82.71245242 -54.58508929 82.71245242 -53.75756836 80.42382812 C-53.41787494 78.29446281 -53.41787494 78.29446281 -54.82006836 76.61132812 C-56.81442032 74.98283949 -56.81442032 74.98283949 -60.63256836 75.36132812 Z M-165.63256836 92.36132812 C-167.63523365 105.23560502 -160.84495169 119.10307774 -153.63256836 129.36132812 C-150.78440972 132.85546089 -147.77107333 136.12807584 -144.63256836 139.36132812 C-144.13499023 139.92078125 -143.63741211 140.48023438 -143.12475586 141.05664062 C-141.22571654 143.14677824 -139.71611667 144.3287239 -137.07006836 145.36132812 C-134.62480955 145.52943557 -134.62480955 145.52943557 -132.57006836 144.42382812 C-130.37509216 142.08724056 -129.17475593 139.61938587 -127.82397461 136.73242188 C-125.02836496 131.16870037 -121.45692983 125.95941433 -117.88256836 120.86914062 C-117.34631836 120.1034375 -116.81006836 119.33773437 -116.25756836 118.54882812 C-115.77545898 117.88238281 -115.29334961 117.2159375 -114.79663086 116.52929688 C-113.28767193 113.71898745 -112.80635867 111.55017831 -112.63256836 108.36132812 C-113.64304417 105.51591237 -113.64304417 105.51591237 -115.32006836 102.86132812 C-115.8756543 101.91386719 -116.43124023 100.96640625 -117.00366211 99.99023438 C-120.40908688 94.3672091 -120.40908688 94.3672091 -124.63256836 89.36132812 C-127.14390748 89.16153681 -129.54245065 89.08147107 -132.05444336 89.09570312 C-132.79204895 89.09378967 -133.52965454 89.09187622 -134.28961182 89.08990479 C-135.85315287 89.08854249 -137.41670522 89.09224203 -138.98022461 89.10058594 C-141.35939423 89.1112245 -143.73779825 89.10072419 -146.11694336 89.08789062 C-147.63777835 89.0892134 -149.15861286 89.09177824 -150.67944336 89.09570312 C-151.38591003 89.09165466 -152.09237671 89.0876062 -152.82025146 89.08343506 C-159.74901199 89.13637342 -159.74901199 89.13637342 -165.63256836 92.36132812 Z M-49.72241211 97.66601562 C-50.34873167 98.85066181 -50.96457627 100.04090263 -51.57006836 101.23632812 C-51.89813477 101.82285156 -52.22620117 102.409375 -52.56420898 103.01367188 C-54.34847058 106.50545263 -54.65701319 108.2326922 -53.91772461 112.12304688 C-52.72206654 115.13581446 -51.53929932 117.73957306 -49.63256836 120.36132812 C-48.97256836 120.36132812 -48.31256836 120.36132812 -47.63256836 120.36132812 C-47.51179932 120.94922119 -47.39103027 121.53711426 -47.26660156 122.14282227 C-46.61805348 124.41211624 -45.80169152 125.90970228 -44.48803711 127.85742188 C-44.05813477 128.49873047 -43.62823242 129.14003906 -43.18530273 129.80078125 C-42.50951172 130.78981445 -42.50951172 130.78981445 -41.82006836 131.79882812 C-41.38114258 132.45431641 -40.9422168 133.10980469 -40.48999023 133.78515625 C-35.53653749 141.91375537 -35.53653749 141.91375537 -27.63256836 146.36132812 C-23.97493254 146.49935212 -21.6440735 146.12503482 -18.68725586 143.89257812 C-7.05358633 132.76075317 3.73541584 116.62175288 4.74243164 100.17382812 C4.31298465 95.80778373 3.56819875 94.30257357 0.36743164 91.36132812 C-4.03561364 89.04084566 -8.38933477 89.02329312 -13.25756836 88.99023438 C-14.08208496 88.9812059 -14.90660156 88.97217743 -15.75610352 88.96287537 C-17.49418526 88.94840986 -19.232321 88.93949535 -20.97045898 88.93579102 C-23.62438472 88.9238649 -26.27600571 88.87462226 -28.92944336 88.82421875 C-30.6221404 88.8147568 -32.31485164 88.80752067 -34.00756836 88.80273438 C-34.79728027 88.78320206 -35.58699219 88.76366974 -36.40063477 88.74354553 C-43.43520364 88.80098982 -45.99850247 91.77736599 -49.72241211 97.66601562 Z M-97.63256836 97.36132812 C-98.29256836 98.02132812 -98.95256836 98.68132812 -99.63256836 99.36132812 C-99.3105787 102.46059632 -99.3105787 102.46059632 -98.63256836 105.36132812 C-96.65256836 105.36132812 -94.67256836 105.36132812 -92.63256836 105.36132812 C-92.30256836 103.05132812 -91.97256836 100.74132812 -91.63256836 98.36132812 C-94.53330017 97.68331778 -94.53330017 97.68331778 -97.63256836 97.36132812 Z M-74.63256836 98.36132812 C-74.79923503 101.36132812 -74.79923503 101.36132812 -74.63256836 104.36132812 C-73.57298066 105.6445536 -73.57298066 105.6445536 -71.13256836 105.48632812 C-68.69215606 105.6445536 -68.69215606 105.6445536 -67.63256836 104.36132812 C-67.46590169 101.36132812 -67.46590169 101.36132812 -67.63256836 98.36132812 C-68.69215606 97.07810265 -68.69215606 97.07810265 -71.13256836 97.23632812 C-73.57298066 97.07810265 -73.57298066 97.07810265 -74.63256836 98.36132812 Z M-98.75634766 126.00146484 C-99.9159344 127.80201524 -101.00066995 129.63088632 -102.07006836 131.48632812 C-102.45404785 132.14576416 -102.83802734 132.8052002 -103.23364258 133.48461914 C-104.00616381 134.81578975 -104.77543023 136.14885512 -105.54125977 137.48388672 C-106.52468332 139.17572723 -107.55076966 140.84259475 -108.58178711 142.50585938 C-112.05481845 148.20068374 -112.05481845 148.20068374 -112.82006836 154.67382812 C-111.41415609 159.0395557 -110.02085946 161.26140222 -106.63256836 164.36132812 C-92.90277263 171.10578919 -73.2337669 171.54268207 -58.63256836 167.36132812 C-55.20865595 165.60737588 -53.79810479 164.60963277 -51.63256836 161.36132812 C-50.99674891 155.11342883 -52.04469106 151.65117807 -55.75756836 146.54882812 C-56.59276558 145.33354996 -57.42477479 144.11607498 -58.25366211 142.89648438 C-58.66213379 142.30109863 -59.07060547 141.70571289 -59.49145508 141.09228516 C-61.10574329 138.64356812 -62.46452875 136.08534941 -63.82006836 133.48632812 C-67.95202277 125.25989122 -67.95202277 125.25989122 -74.63256836 119.36132812 C-77.58633948 119.15721758 -80.48857525 119.03750267 -83.44506836 118.98632812 C-84.65646484 118.93025391 -84.65646484 118.93025391 -85.89233398 118.87304688 C-92.45291917 118.77633063 -94.97730849 120.48602163 -98.75634766 126.00146484 Z " fill="#C1C0BF" transform="translate(201.632568359375,39.638671875)"/>
<path d="M0 0 C0 0.66 0 1.32 0 2 C19.14 2 38.28 2 58 2 C58.495 3.98 58.495 3.98 59 6 C58.01 6 57.02 6 56 6 C56 6.66 56 7.32 56 8 C43.45847441 8.84563825 30.96206397 9.18637084 18.39257812 9.18530273 C15.47511812 9.1875189 12.55802013 9.20585191 9.640625 9.22460938 C7.75000126 9.2275396 5.85937577 9.22952687 3.96875 9.23046875 C3.11438354 9.23765427 2.26001709 9.24483978 1.37976074 9.25224304 C-3.88726053 9.23253075 -8.72170128 8.60441354 -13.85778809 7.42710876 C-16.68084995 6.86425387 -19.15085909 7.02659962 -22 7.375 C-33.29703053 8.44431803 -44.66420741 8.08310698 -56 8 C-56 7.67 -56 7.34 -56 7 C-55.33693848 6.98541748 -54.67387695 6.97083496 -53.99072266 6.95581055 C-35.95671089 6.51500684 -17.24626015 0 0 0 Z " fill="#7B6C6C" transform="translate(162,225)"/>
<path d="M0 0 C3.90612165 2.06361144 6.48603365 3.76089421 8 8 C7.34 8 6.68 8 6 8 C4.66666667 6.66666667 3.33333333 5.33333333 2 4 C1.01 3.67 0.02 3.34 -1 3 C-13.48138808 10.5159663 -21.81307999 27.97317265 -25.515625 41.609375 C-26.21183273 45.04549702 -26.55674144 48.47287117 -26.7890625 51.96875 C-27 54 -27 54 -28 56 C-31 55 -31 55 -32.6875 52.5 C-36.20182382 43.12846981 -32.97832447 34.82023644 -29 26 C-23.48482534 15.95539456 -12.7867131 -1.30034371 0 0 Z " fill="#767170" transform="translate(63,52)"/>
<path d="M0 0 C5.10282146 4.85995128 9.63561525 10.29486953 13.31469727 16.31518555 C13.31469727 17.30518555 13.31469727 18.29518555 13.31469727 19.31518555 C9.99940454 18.32955798 8.56520348 17.66071136 6.50219727 14.81518555 C5.31469727 12.31518555 5.31469727 12.31518555 5.31469727 10.31518555 C4.65469727 10.31518555 3.99469727 10.31518555 3.31469727 10.31518555 C1.81469727 8.94018555 1.81469727 8.94018555 0.31469727 7.31518555 C-0.34530273 6.65518555 -1.00530273 5.99518555 -1.68530273 5.31518555 C-2.09780273 4.55206055 -2.51030273 3.78893555 -2.93530273 3.00268555 C-5.17655015 -0.43923012 -7.33480589 -2.29160242 -10.68530273 -4.68481445 C-12.00530273 -4.68481445 -13.32530273 -4.68481445 -14.68530273 -4.68481445 C-14.68530273 -5.34481445 -14.68530273 -6.00481445 -14.68530273 -6.68481445 C-15.34530273 -6.68481445 -16.00530273 -6.68481445 -16.68530273 -6.68481445 C-16.68530273 -8.00481445 -16.68530273 -9.32481445 -16.68530273 -10.68481445 C-17.42780273 -10.97356445 -18.17030273 -11.26231445 -18.93530273 -11.55981445 C-21.2527007 -12.5078409 -23.46447388 -13.53327357 -25.68530273 -14.68481445 C-25.68530273 -15.34481445 -25.68530273 -16.00481445 -25.68530273 -16.68481445 C-26.55799805 -16.96583008 -27.43069336 -17.2468457 -28.32983398 -17.53637695 C-31.41462712 -18.59217344 -34.37702226 -19.77649239 -37.37280273 -21.05981445 C-38.42725586 -21.4980957 -39.48170898 -21.93637695 -40.56811523 -22.38793945 C-42.46428611 -23.17682257 -44.35621121 -23.97615697 -46.23999023 -24.79418945 C-66.5692389 -33.02721851 -91.35669645 -33.14647257 -112.29858398 -27.55981445 C-115.68530273 -26.68481445 -115.68530273 -26.68481445 -118.68530273 -26.68481445 C-118.68530273 -26.02481445 -118.68530273 -25.36481445 -118.68530273 -24.68481445 C-123.14030273 -24.18981445 -123.14030273 -24.18981445 -127.68530273 -23.68481445 C-127.35530273 -24.67481445 -127.02530273 -25.66481445 -126.68530273 -26.68481445 C-124.82202148 -27.54443359 -124.82202148 -27.54443359 -122.37280273 -28.2199707 C-121.02001221 -28.59690063 -121.02001221 -28.59690063 -119.63989258 -28.98144531 C-118.17737061 -29.36055054 -118.17737061 -29.36055054 -116.68530273 -29.74731445 C-115.18604248 -30.14092163 -115.18604248 -30.14092163 -113.65649414 -30.54248047 C-71.99416242 -41.10612072 -31.40228189 -28.77134906 0 0 Z " fill="#E8E2E2" transform="translate(201.685302734375,39.684814453125)"/>
<path d="M0 0 C-0.4846875 0.40734375 -0.969375 0.8146875 -1.46875 1.234375 C-3.88435777 4.01971866 -3.52993574 6.35713398 -3.41015625 9.9296875 C-1.43804648 24.69233781 6.0498403 37.48714742 16.27734375 48.0390625 C18 50 18 50 18 52 C20.93720508 53.52299523 23.9168649 54.80100302 27 56 C24.34459282 57.80567688 22.94968283 57.99780456 19.6875 57.85546875 C11.1494809 55.87472067 5.10714998 46.58332209 0.625 39.5 C-2.66306105 33.83162481 -5.49238363 28.05057436 -8 22 C-8.3196875 21.29230469 -8.639375 20.58460938 -8.96875 19.85546875 C-11.0152677 15.05183692 -12.22254134 10.1859415 -11 5 C-8.25061138 1.05920964 -4.8194082 -0.7087365 0 0 Z " fill="#767472" transform="translate(40,129)"/>
<path d="M0 0 C0.66 0.33 1.32 0.66 2 1 C-0.34051082 12.74616611 -3.7282268 23.24462797 -9 34 C-9.47308594 34.98613281 -9.94617188 35.97226563 -10.43359375 36.98828125 C-15.92408956 47.73596568 -23.54939071 56.79030521 -32 65.3125 C-32.56404541 65.88210449 -33.12809082 66.45170898 -33.70922852 67.03857422 C-37.74251272 71 -37.74251272 71 -40 71 C-38.94914743 68.32510254 -38.06531917 67.05018424 -35.7578125 65.27734375 C-32.507105 62.59297764 -30.11537016 59.64511524 -27.5625 56.3125 C-27.0787793 55.68529053 -26.59505859 55.05808105 -26.09667969 54.41186523 C-24.72090992 52.61536158 -23.35765964 50.81021286 -22 49 C-21.40574219 48.21109375 -20.81148437 47.4221875 -20.19921875 46.609375 C-12.81626267 36.18169579 -8.44675768 24.29581078 -5.04101562 12.08251953 C-4.4466376 10.02816855 -3.73288312 8.00911063 -3 6 C-2.01 5.67 -1.02 5.34 0 5 C0 3.35 0 1.7 0 0 Z " fill="#7D7674" transform="translate(232,135)"/>
<path d="M0 0 C1.35448242 -0.01836914 1.35448242 -0.01836914 2.73632812 -0.03710938 C8.36309377 -0.04933262 13.16389143 0.590017 18.5625 2.1875 C14.36253228 3.38089191 10.32796737 3.21241566 6 3.125 C-4.63842354 3.03570868 -14.92979773 3.93180278 -24.4375 9.1875 C-27.64076981 12.77904494 -28.09926493 16.45220898 -28.4375 21.1875 C-28.07775105 23.99987541 -28.07775105 23.99987541 -27.4375 26.1875 C-31.24639788 22.7413543 -33.60027687 19.39742798 -33.875 14.1875 C-33.7257599 11.44971607 -33.34896669 9.99272672 -32.1875 7.4375 C-23.38392549 0.2345754 -10.87271698 0.00772759 0 0 Z " fill="#7D7675" transform="translate(117.4375,27.8125)"/>
<path d="M0 0 C0.33 0.66 0.66 1.32 1 2 C0.0611716 3.74270021 -0.95213121 5.44560315 -2 7.125 C-4.7552242 11.96390749 -4.7552242 11.96390749 -5.125 17.375 C-3.90716559 21.29913309 -3.05467294 23.25862684 0 26 C11.10104266 31.35228843 23.89823277 31.41641224 36 32 C36 32.33 36 32.66 36 33 C31.75013521 33.08842548 27.50051254 33.14086428 23.25 33.1875 C22.06277344 33.21263672 20.87554687 33.23777344 19.65234375 33.26367188 C10.67946331 33.33722008 1.5329853 32.93310813 -6.1875 27.9375 C-9.10584341 24.81789153 -9.5625 22.1380303 -9.5625 17.859375 C-8.39171683 11.90789389 -4.30072162 4.30072162 0 0 Z " fill="#655E5E" transform="translate(95,177)"/>
<path d="M0 0 C0.33 0.66 0.66 1.32 1 2 C0.01 2.495 0.01 2.495 -1 3 C-2.73187092 5.63545574 -4.1037789 8.23586113 -5.375 11.125 C-7 14 -7 14 -9.3125 15.3125 C-13.39068623 17.87322159 -15.91523532 21.68718783 -18 26 C-18.22546171 28.69359775 -18.22546171 28.69359775 -18 31 C-18.66 31 -19.32 31 -20 31 C-22.11486702 34.43665891 -22.0828286 37.02422713 -22 41 C-22.5 43.375 -22.5 43.375 -23 45 C-24.98 45.495 -24.98 45.495 -27 46 C-27.42433935 39.49590203 -26.29555858 35.33721094 -23.375 29.5625 C-22.83238525 28.45370483 -22.83238525 28.45370483 -22.27880859 27.32250977 C-16.70762738 16.14451341 -16.70762738 16.14451341 -13 12 C-12.34 12 -11.68 12 -11 12 C-10.773125 11.278125 -10.54625 10.55625 -10.3125 9.8125 C-8.13405342 5.1444002 -4.77700421 1.9461869 0 0 Z " fill="#D0CBC9" transform="translate(37,40)"/>
<path d="M0 0 C3.90612165 2.06361144 6.48603365 3.76089421 8 8 C7.34 8 6.68 8 6 8 C4.66666667 6.66666667 3.33333333 5.33333333 2 4 C1.01 3.67 0.02 3.34 -1 3 C-9.78206506 8.28833048 -15.2392963 18.24030519 -20 27 C-21.33623836 22.99128491 -20.38227053 20.93947102 -19 17 C-17.375 14.5625 -17.375 14.5625 -16 13 C-17.65 14.32 -19.3 15.64 -21 17 C-20.44775428 12.96579823 -18.39561019 10.87608766 -15.6875 7.9375 C-14.90761719 7.08027344 -14.12773438 6.22304688 -13.32421875 5.33984375 C-8.87054244 0.85622676 -6.51800556 -0.78665584 0 0 Z " fill="#7A7170" transform="translate(63,52)"/>
<path d="M0 0 C3 1 3 1 4.359375 3.40625 C4.81828125 4.4271875 5.2771875 5.448125 5.75 6.5 C8.96933417 13.22696693 12.82437213 18.94780643 18.2109375 24.125 C20 26 20 26 20 28 C22.93720508 29.52299523 25.9168649 30.80100302 29 32 C26.37602302 33.78430434 24.93893137 33.99825518 21.71875 33.90625 C17.2487056 32.81691145 15.04501456 30.74177961 12.0625 27.4375 C11.56943359 26.91736328 11.07636719 26.39722656 10.56835938 25.86132812 C9.36467071 24.58752167 8.18027648 23.29552951 7 22 C7.39703125 21.44957031 7.7940625 20.89914063 8.203125 20.33203125 C8.59757812 19.17767578 8.59757812 19.17767578 9 18 C7.7593856 15.32690573 7.7593856 15.32690573 5.75 12.6875 C2.83922319 8.42141061 1.00888959 5.04444795 0 0 Z " fill="#847C7A" transform="translate(38,153)"/>
<path d="M0 0 C3.40887054 3.94150657 5.72611677 7.98287926 8 12.625 C8.34812744 13.32923096 8.69625488 14.03346191 9.05493164 14.7590332 C12.54528052 21.93341224 15.55883104 29.1225425 17 37 C16.01 37 15.02 37 14 37 C13.67 36.01 13.34 35.02 13 34 C12.01 34 11.02 34 10 34 C10 33.34 10 32.68 10 32 C10.66 32 11.32 32 12 32 C11.65213292 30.02463255 11.65213292 30.02463255 11 28 C10.34 27.67 9.68 27.34 9 27 C8.10546875 25.35546875 8.10546875 25.35546875 7.1875 23.1875 C6.84074219 22.38441406 6.49398437 21.58132812 6.13671875 20.75390625 C5.32655195 18.79113101 4.53997829 16.81854743 3.76953125 14.83984375 C3.35058594 13.77894531 2.93164062 12.71804687 2.5 11.625 C2.1184375 10.62726563 1.736875 9.62953125 1.34375 8.6015625 C-0.45040701 5.12799108 -2.57178574 3.71410713 -6 2 C-2.25 0.875 -2.25 0.875 0 2 C0 1.34 0 0.68 0 0 Z " fill="#D3CBC9" transform="translate(215,57)"/>
<path d="M0 0 C0 0.99 0 1.98 0 3 C-2.3300998 4.1650499 -3.67247077 4.1209358 -6.26611328 4.11352539 C-7.58725632 4.11341209 -7.58725632 4.11341209 -8.93508911 4.11329651 C-9.88721283 4.10813522 -10.83933655 4.10297394 -11.8203125 4.09765625 C-12.79410858 4.0962413 -13.76790466 4.09482635 -14.77120972 4.09336853 C-17.88917073 4.08775973 -21.0070606 4.07520573 -24.125 4.0625 C-26.23567605 4.05748613 -28.34635322 4.05292303 -30.45703125 4.04882812 C-35.63804521 4.03778745 -40.81901752 4.02104073 -46 4 C-34.46655533 -3.68896311 -13.15434602 -0.18767175 0 0 Z " fill="#D9D0CF" transform="translate(219,228)"/>
<path d="M0 0 C1.9375 0.75 1.9375 0.75 4 2 C4.62890625 4.078125 4.62890625 4.078125 5 6 C12.54141551 8.49476119 19.63668086 8.0245589 27.5 7.625 C28.799375 7.56828125 30.09875 7.5115625 31.4375 7.453125 C34.62562249 7.31247254 37.81285838 7.16114045 41 7 C41 7.66 41 8.32 41 9 C43.64 8.67 46.28 8.34 49 8 C48.67 8.66 48.34 9.32 48 10 C40.53605673 11.25348666 32.96057503 11.28436713 25.40600586 11.35009766 C24.00479651 11.3667651 22.6036758 11.3941951 21.20288086 11.43212891 C8.03308903 11.78504189 8.03308903 11.78504189 4.12890625 8.68359375 C1.86913278 5.83503526 0.82067099 3.52888527 0 0 Z " fill="#CEC8C5" transform="translate(151,101)"/>
<path d="M0 0 C0.66 0.33 1.32 0.66 2 1 C1.62988544 3.14666448 1.14772611 4.76635949 -0.02050781 6.61401367 C-3.18591903 8.83034809 -6.63315494 8.40651539 -10.359375 8.36328125 C-11.59327972 8.36402901 -11.59327972 8.36402901 -12.85211182 8.36479187 C-14.59381523 8.36245137 -16.33552202 8.3527242 -18.07714844 8.33618164 C-20.72622432 8.31271065 -23.37428488 8.31560574 -26.0234375 8.32226562 C-27.71875594 8.3166843 -29.41407016 8.30957158 -31.109375 8.30078125 C-32.28787018 8.30214836 -32.28787018 8.30214836 -33.49017334 8.30354309 C-38.3504502 8.2418196 -42.38423927 7.53820418 -47 6 C-43.71023192 4.90341064 -42.28696233 5.20046862 -39 6 C-38.67 5.34 -38.34 4.68 -38 4 C-37.15179688 4.0721875 -36.30359375 4.144375 -35.4296875 4.21875 C-19.10715442 5.88180119 -19.10715442 5.88180119 -3 4 C-1.03712176 2.08261145 -1.03712176 2.08261145 0 0 Z " fill="#CCC4C2" transform="translate(81,104)"/>
<path d="M0 0 C1.1446875 0.495 1.1446875 0.495 2.3125 1 C4.99069135 2.17436686 4.99069135 2.17436686 8 2 C10.16142153 3.68842347 12.13273028 5.3783173 14.125 7.25 C14.69887451 7.78488037 15.27274902 8.31976074 15.86401367 8.87084961 C21.25263069 14.02181094 26.1274858 19.60584865 30 26 C30 26.99 30 27.98 30 29 C26.68470727 28.01437243 25.25050621 27.34552581 23.1875 24.5 C22 22 22 22 22 20 C21.34 20 20.68 20 20 20 C18.5 18.625 18.5 18.625 17 17 C16.34 16.34 15.68 15.68 15 15 C14.38125 13.8553125 14.38125 13.8553125 13.75 12.6875 C11.50875259 9.24558433 9.35049684 7.39321203 6 5 C4.68 5 3.36 5 2 5 C2 4.34 2 3.68 2 3 C1.34 3 0.68 3 0 3 C0 2.01 0 1.02 0 0 Z " fill="#D8D1CF" transform="translate(185,30)"/>
<path d="M0 0 C-2.52267991 1.68178661 -4.81091823 2.90106742 -7.5625 4.125 C-8.34753906 4.47820313 -9.13257812 4.83140625 -9.94140625 5.1953125 C-12 6 -12 6 -14 6 C-14 6.66 -14 7.32 -14 8 C-14.99 8.66 -15.98 9.32 -17 10 C-18.19232613 12.05003955 -18.19232613 12.05003955 -19 14 C-21.97 13.505 -21.97 13.505 -25 13 C-25 13.66 -25 14.32 -25 15 C-25.66 15 -26.32 15 -27 15 C-27 16.32 -27 17.64 -27 19 C-29.3125 20.8125 -29.3125 20.8125 -32 22 C-32.99 21.67 -33.98 21.34 -35 21 C-33.88200014 19.66079162 -32.75538103 18.32877444 -31.625 17 C-30.68527344 15.88625 -30.68527344 15.88625 -29.7265625 14.75 C-28.87191406 13.88375 -28.87191406 13.88375 -28 13 C-27.34 13 -26.68 13 -26 13 C-26 12.34 -26 11.68 -26 11 C-24.02457904 9.60877365 -22.07376886 8.35353202 -20 7.125 C-19.40638672 6.76929932 -18.81277344 6.41359863 -18.20117188 6.04711914 C-16.4738159 5.02062046 -14.7370711 4.00997139 -13 3 C-12.1853125 2.52175781 -11.370625 2.04351563 -10.53125 1.55078125 C-6.69270478 -0.5530368 -4.21348249 -1.58005593 0 0 Z " fill="#D2CECD" transform="translate(74,17)"/>
<path d="M0 0 C0 0.33 0 0.66 0 1 C-1.48886719 0.98259766 -1.48886719 0.98259766 -3.0078125 0.96484375 C-20.1871828 0.49632999 -20.1871828 0.49632999 -36.7578125 4.234375 C-41.04128383 5.69702375 -45.54008323 6.29141509 -50 7 C-50 7.66 -50 8.32 -50 9 C-54.455 9.495 -54.455 9.495 -59 10 C-58.67 9.01 -58.34 8.02 -58 7 C-56.13671875 6.14038086 -56.13671875 6.14038086 -53.6875 5.46484375 C-52.78555908 5.21355713 -51.88361816 4.96227051 -50.9543457 4.70336914 C-49.97941162 4.45063232 -49.00447754 4.19789551 -48 3.9375 C-47.00121826 3.67509521 -46.00243652 3.41269043 -44.97338867 3.14233398 C-29.66874346 -0.74038664 -15.70334008 -1.27557318 0 0 Z " fill="#D8D1D1" transform="translate(133,6)"/>
<path d="M0 0 C0.66 0.33 1.32 0.66 2 1 C2 1.66 2 2.32 2 3 C1.360625 3.598125 0.72125 4.19625 0.0625 4.8125 C-2.30815807 7.32683432 -2.49838115 8.65587433 -3 12 C-4.31564081 15.28910202 -4.91188844 15.94125896 -8 18 C-8 18.66 -8 19.32 -8 20 C-9.32 19.34 -10.64 18.68 -12 18 C-11.69298422 12.01319239 -8.81592387 7.46829493 -5 3 C-2.86328125 1.796875 -2.86328125 1.796875 -1 1 C-0.67 0.67 -0.34 0.34 0 0 Z " fill="#787877" transform="translate(46,64)"/>
<path d="M0 0 C0.68707555 2.49064888 1 4.37886292 1 7 C2.32 6.67 3.64 6.34 5 6 C5.02691685 8.45840605 5.04679802 10.91651882 5.0625 13.375 C5.07087891 14.07367188 5.07925781 14.77234375 5.08789062 15.4921875 C5.11328125 20.7734375 5.11328125 20.7734375 4 23 C1 22 1 22 -0.6875 19.5 C-3.21871066 12.75010492 -2.27774769 6.69088383 0 0 Z " fill="#8F8E8D" transform="translate(31,85)"/>
<path d="M0 0 C4.99825428 0.60136787 8.9489827 2.83490373 13.3125 5.1875 C14.06853516 5.59242676 14.82457031 5.99735352 15.60351562 6.41455078 C29.28757458 13.86272375 29.28757458 13.86272375 31 19 C27.69918209 17.38102741 24.47442567 15.64075691 21.25 13.875 C19.77273437 13.06675781 19.77273437 13.06675781 18.265625 12.2421875 C17.51796875 11.83226562 16.7703125 11.42234375 16 11 C16 10.34 16 9.68 16 9 C15.195625 8.7525 14.39125 8.505 13.5625 8.25 C10.72729876 7.25519255 7.95887514 6.2179775 5.1875 5.0625 C4.41792969 4.74410156 3.64835938 4.42570312 2.85546875 4.09765625 C1 3 1 3 0 0 Z " fill="#DFDBD8" transform="translate(160,14)"/>
<path d="M0 0 C15.51 0 31.02 0 47 0 C47.495 1.98 47.495 1.98 48 4 C47.34 4 46.68 4 46 4 C46 3.01 46 2.02 46 1 C30.65851804 1.53506795 15.32605182 2.12262554 0 3 C0 2.01 0 1.02 0 0 Z " fill="#615A5B" transform="translate(173,227)"/>
<path d="M0 0 C-0.48082031 0.39832031 -0.96164063 0.79664063 -1.45703125 1.20703125 C-3.37391825 3.43450247 -3.47741643 4.78834669 -3.6875 7.6875 C-3.75324219 8.49574219 -3.81898437 9.30398437 -3.88671875 10.13671875 C-3.92410156 10.75160156 -3.96148437 11.36648437 -4 12 C-4.99 12.33 -5.98 12.66 -7 13 C-7.66 12.67 -8.32 12.34 -9 12 C-9.66 12.66 -10.32 13.32 -11 14 C-11.90227848 6.33063291 -11.90227848 6.33063291 -9.83984375 3.2890625 C-6.68074456 0.4935425 -4.17262675 -0.61362158 0 0 Z " fill="#807D7C" transform="translate(40,129)"/>
<path d="M0 0 C1.09570312 0.00902344 2.19140625 0.01804688 3.3203125 0.02734375 C4.16335937 0.03894531 5.00640625 0.05054688 5.875 0.0625 C5.875 0.3925 5.875 0.7225 5.875 1.0625 C19.735 1.0625 33.595 1.0625 47.875 1.0625 C47.875 1.7225 47.875 2.3825 47.875 3.0625 C35.90286311 4.17103119 24.00375709 4.06799809 12 3.75 C11.23576721 3.73284943 10.47153442 3.71569885 9.68414307 3.69802856 C7.47908706 3.64646714 5.27486461 3.58133119 3.0703125 3.51171875 C1.78141113 3.47393311 0.49250977 3.43614746 -0.83544922 3.3972168 C-3.84526779 3.09096318 -5.59495175 2.64866096 -8.125 1.0625 C-5.36047967 -0.31976016 -3.0788637 -0.03275387 0 0 Z " fill="#847A79" transform="translate(170.125,229.9375)"/>
<path d="M0 0 C2.4375 0.375 2.4375 0.375 5 1 C5.33 1.66 5.66 2.32 6 3 C6.33 2.34 6.66 1.68 7 1 C8.77734375 0.515625 8.77734375 0.515625 10.9375 0.25 C11.64777344 0.15203125 12.35804687 0.0540625 13.08984375 -0.046875 C15 0 15 0 17 2 C16.01 3.485 16.01 3.485 15 5 C17.64 5.66 20.28 6.32 23 7 C23 7.33 23 7.66 23 8 C16.95949073 8.32784311 11.85891514 7.13093049 6.0625 5.5 C5.18787109 5.26152344 4.31324219 5.02304688 3.41210938 4.77734375 C1.27244561 4.19273616 -0.86465572 3.60015656 -3 3 C-2.01 2.67 -1.02 2.34 0 2 C0 1.34 0 0.68 0 0 Z " fill="#AAA4A4" transform="translate(83,224)"/>
<path d="M0 0 C0.33 0 0.66 0 1 0 C1.02726927 2.35424675 1.04696719 4.70816962 1.0625 7.0625 C1.07410156 8.37347656 1.08570313 9.68445313 1.09765625 11.03515625 C1.00452335 14.8163519 0.61448726 18.27920707 0 22 C-0.66 22 -1.32 22 -2 22 C-2 23.65 -2 25.3 -2 27 C-2.99 27.33 -3.98 27.66 -5 28 C-5.25706972 22.08739655 -4.2982126 16.76081841 -3 11 C-2.67 11 -2.34 11 -2 11 C-1.93941406 10.28972656 -1.87882813 9.57945313 -1.81640625 8.84765625 C-1.69072266 7.46900391 -1.69072266 7.46900391 -1.5625 6.0625 C-1.48128906 5.14597656 -1.40007812 4.22945313 -1.31640625 3.28515625 C-1 1 -1 1 0 0 Z " fill="#ADA0A2" transform="translate(234,113)"/>
<path d="M0 0 C0.66 0.33 1.32 0.66 2 1 C0.68 6.61 -0.64 12.22 -2 18 C-2.66 18 -3.32 18 -4 18 C-4.99 20.97 -5.98 23.94 -7 27 C-7.66 27 -8.32 27 -9 27 C-8.29424456 24.36718184 -7.58044243 21.73697913 -6.85546875 19.109375 C-6.30332889 17.1025105 -5.76335168 15.09224133 -5.23828125 13.078125 C-4.99464844 12.18609375 -4.75101563 11.2940625 -4.5 10.375 C-4.2834375 9.55773437 -4.066875 8.74046875 -3.84375 7.8984375 C-3.5653125 7.27195313 -3.286875 6.64546875 -3 6 C-2.01 5.67 -1.02 5.34 0 5 C0 3.35 0 1.7 0 0 Z " fill="#85807F" transform="translate(232,135)"/>
<path d="M0 0 C3 1 3 1 4.359375 3.40625 C4.81828125 4.4271875 5.2771875 5.448125 5.75 6.5 C9.1383643 13.58937069 13.36037531 19.53075672 19 25 C18.67 25.99 18.34 26.98 18 28 C13.2594593 23.76377214 9.63745206 19.30102591 6.1875 14 C5.80279541 13.41911621 5.41809082 12.83823242 5.02172852 12.23974609 C2.46747662 8.21373437 1.10384994 4.57893307 0 0 Z " fill="#B2ADAB" transform="translate(38,153)"/>
<path d="M0 0 C0.93457031 0.00966797 1.86914062 0.01933594 2.83203125 0.02929688 C3.80011719 0.05443359 4.76820312 0.07957031 5.765625 0.10546875 C7.24095703 0.12577148 7.24095703 0.12577148 8.74609375 0.14648438 C11.16982915 0.18178149 13.59244645 0.23108821 16.015625 0.29296875 C16.510625 1.28296875 16.510625 1.28296875 17.015625 2.29296875 C16.43594971 2.26678467 15.85627441 2.24060059 15.2590332 2.21362305 C12.61567625 2.10926263 9.97275301 2.04452548 7.328125 1.98046875 C6.41611328 1.93857422 5.50410156 1.89667969 4.56445312 1.85351562 C0.10885997 1.77250484 -2.21536648 1.7314377 -5.89453125 4.41796875 C-8.06066281 7.39791797 -9.9541435 10.3797838 -11.734375 13.60546875 C-12.79381213 15.5147587 -13.87022212 17.41508204 -14.984375 19.29296875 C-15.314375 19.29296875 -15.644375 19.29296875 -15.984375 19.29296875 C-16.109375 12.54296875 -16.109375 12.54296875 -14.984375 10.29296875 C-13.664375 10.29296875 -12.344375 10.29296875 -10.984375 10.29296875 C-10.984375 8.64296875 -10.984375 6.99296875 -10.984375 5.29296875 C-10.324375 5.29296875 -9.664375 5.29296875 -8.984375 5.29296875 C-8.984375 4.63296875 -8.984375 3.97296875 -8.984375 3.29296875 C-6.03689658 0.48826148 -4.01377104 -0.07342264 0 0 Z " fill="#AFA5A2" transform="translate(111.984375,157.70703125)"/>
<path d="M0 0 C3.63 0 7.26 0 11 0 C11.33 0.66 11.66 1.32 12 2 C11.67 2.66 11.34 3.32 11 4 C11.598125 4.04125 12.19625 4.0825 12.8125 4.125 C15 5 15 5 16.75 8.0625 C17.1625 9.031875 17.575 10.00125 18 11 C14.24026115 11 13.84320212 10.1401429 11.25 7.5625 C7.44390363 4.06653 5.12349895 3.10673956 0 3 C0 2.01 0 1.02 0 0 Z " fill="#C7C5C4" transform="translate(171,49)"/>
<path d="M0 0 C0.99 0 1.98 0 3 0 C1.3852403 5.13787177 -1.50053886 8.30681665 -5.9375 11.3125 C-10.01347357 12.67115786 -13.01218868 12.4724315 -16.875 10.625 C-17.57625 10.08875 -18.2775 9.5525 -19 9 C-19 8.34 -19 7.68 -19 7 C-19.66 7 -20.32 7 -21 7 C-21 6.34 -21 5.68 -21 5 C-18.50638429 6.20381448 -16.31856917 7.45428722 -14 9 C-11.71351152 9.24107326 -11.71351152 9.24107326 -9.3125 9.125 C-8.50425781 9.10695312 -7.69601563 9.08890625 -6.86328125 9.0703125 C-6.24839844 9.04710937 -5.63351563 9.02390625 -5 9 C-5 8.34 -5 7.68 -5 7 C-4.01 6.34 -3.02 5.68 -2 5 C-0.79549696 2.44816596 -0.79549696 2.44816596 0 0 Z " fill="#C4C3C2" transform="translate(72,177)"/>
<path d="M0 0 C5.65797256 3.17398461 9.56873143 7.48763659 13 13 C13 13.99 13 14.98 13 16 C9.68470727 15.01437243 8.25050621 14.34552581 6.1875 11.5 C5 9 5 9 5 7 C4.34 7 3.68 7 3 7 C0 2.61538462 0 2.61538462 0 0 Z " fill="#DDD4D2" transform="translate(202,43)"/>
<path d="M0 0 C-5.02967922 5.02967922 -14.22496523 4.10884555 -20.92236328 4.13623047 C-24.9491016 4.11987607 -28.97383462 4.07098039 -33 4 C-33 3.67 -33 3.34 -33 3 C-25.41 2.67 -17.82 2.34 -10 2 C-10 1.34 -10 0.68 -10 0 C-6.30458414 -0.95024979 -3.69541586 -0.95024979 0 0 Z " fill="#D8D3D0" transform="translate(141,208)"/>
<path d="M0 0 C1.37488287 -0.02749766 2.74993391 -0.0466164 4.125 -0.0625 C5.27355469 -0.07990234 5.27355469 -0.07990234 6.4453125 -0.09765625 C9 0 9 0 11.78125 0.46875 C15.64515229 1.10648145 19.4686086 1.34704803 23.375 1.5625 C24.11105469 1.60568359 24.84710938 1.64886719 25.60546875 1.69335938 C27.40348068 1.79843799 29.20171958 1.89962093 31 2 C31 2.33 31 2.66 31 3 C26.6041806 3.02907584 22.20838601 3.0468244 17.8125 3.0625 C16.56662109 3.07087891 15.32074219 3.07925781 14.03710938 3.08789062 C12.2340332 3.09272461 12.2340332 3.09272461 10.39453125 3.09765625 C9.28956299 3.10289307 8.18459473 3.10812988 7.04614258 3.11352539 C4.24200621 3.00901923 1.72582671 2.64097959 -1 2 C-0.67 1.34 -0.34 0.68 0 0 Z " fill="#87807D" transform="translate(100,207)"/>
<path d="M0 0 C2.64 0.66 5.28 1.32 8 2 C8 2.66 8 3.32 8 4 C8.99 4 9.98 4 11 4 C11.33 3.34 11.66 2.68 12 2 C13.65 2 15.3 2 17 2 C16.690625 2.8971875 16.690625 2.8971875 16.375 3.8125 C15.69328085 6.28450846 15.69328085 6.28450846 18 9 C13.49272353 8.39733215 10.1412037 6.63400206 6.1875 4.4375 C5.59001953 4.10814453 4.99253906 3.77878906 4.37695312 3.43945312 C2.91466002 2.63226733 1.4568601 1.81695083 0 1 C0 0.67 0 0.34 0 0 Z " fill="#A49D9C" transform="translate(59,216)"/>
<path d="M0 0 C0.66 0.33 1.32 0.66 2 1 C1.40832031 1.68964844 0.81664062 2.37929688 0.20703125 3.08984375 C-4.57711992 8.77931553 -8.71771681 14.31997643 -12 21 C-13.37680525 16.86958426 -12.63407621 15.01710401 -11 11 C-9.25186157 9.26394547 -7.45312934 7.80676336 -5.4609375 6.359375 C-4.97882812 5.91078125 -4.49671875 5.4621875 -4 5 C-4 4.01 -4 3.02 -4 2 C-2.125 0.9375 -2.125 0.9375 0 0 Z " fill="#645E5E" transform="translate(55,58)"/>
<path d="M0 0 C0.99 0.33 1.98 0.66 3 1 C2.67 1.66 2.34 2.32 2 3 C4.31 3 6.62 3 9 3 C9.33 4.65 9.66 6.3 10 8 C9.34 7.34 8.68 6.68 8 6 C5.41645782 5.83312552 5.41645782 5.83312552 3 6 C2.67 7.98 2.34 9.96 2 12 C0 11 0 11 -1.25 8.25 C-2.09059749 4.60741086 -1.71597402 3.24128426 0 0 Z " fill="#BCB4B5" transform="translate(125,89)"/>
<path d="M0 0 C0 0.33 0 0.66 0 1 C-6.93 1 -13.86 1 -21 1 C-14.27586182 -3.48275879 -7.36257999 -2.40410775 0 0 Z " fill="#C5BFBD" transform="translate(194,231)"/>
<path d="M0 0 C1.9375 0.75 1.9375 0.75 4 2 C4.625 4.0625 4.625 4.0625 5 6 C5.66 6.33 6.32 6.66 7 7 C7.66 7.66 8.32 8.32 9 9 C11.89967757 9.30675232 14.71783178 9.51173371 17.625 9.625 C18.42679688 9.66367188 19.22859375 9.70234375 20.0546875 9.7421875 C22.03607556 9.83653931 24.01800645 9.91936215 26 10 C26 10.33 26 10.66 26 11 C23.12340174 11.1356886 20.25326537 11.23440753 17.375 11.3125 C16.56675781 11.35439453 15.75851563 11.39628906 14.92578125 11.43945312 C10.70357897 11.52527024 7.8764381 11.37798804 4.5 8.6875 C1.84411645 5.83242519 0.87590692 3.76639978 0 0 Z " fill="#E1DBD9" transform="translate(151,101)"/>
<path d="M0 0 C-0.33 0.33 -0.66 0.66 -1 1 C1.64 1.66 4.28 2.32 7 3 C7 3.33 7 3.66 7 4 C5.10424749 4.02721176 3.20838021 4.04649136 1.3125 4.0625 C-0.27111328 4.07990234 -0.27111328 4.07990234 -1.88671875 4.09765625 C-4.72410262 4.00865425 -7.2438919 3.64939838 -10 3 C-9.67 2.01 -9.34 1.02 -9 0 C-2.25 -1.125 -2.25 -1.125 0 0 Z " fill="#595253" transform="translate(161,230)"/>
<path d="M0 0 C0.33 0.66 0.66 1.32 1 2 C0.11227022 3.74606454 -0.8617297 5.44866803 -1.875 7.125 C-3.8877059 10.65070551 -5.36258288 13.43475795 -5.6875 17.5 C-6.02430101 21.27217137 -6.3156001 21.67682541 -9 24 C-10.28817243 14.66074989 -5.9142282 8.56354784 -1 1 C-0.67 0.67 -0.34 0.34 0 0 Z " fill="#7A6D6C" transform="translate(95,177)"/>
<path d="M0 0 C0.66 0.33 1.32 0.66 2 1 C2 1.66 2 2.32 2 3 C1.360625 3.598125 0.72125 4.19625 0.0625 4.8125 C-2.30815807 7.32683432 -2.49838115 8.65587433 -3 12 C-4.0625 14.3125 -4.0625 14.3125 -5 16 C-7 13 -7 13 -7 10.8125 C-5.50578228 6.61001266 -2.79024643 3.43874407 0 0 Z " fill="#817D7C" transform="translate(46,64)"/>
<path d="M0 0 C2.31 0.66 4.62 1.32 7 2 C6.01 2.33 5.02 2.66 4 3 C4.33 5.31 4.66 7.62 5 10 C4.01 10.33 3.02 10.66 2 11 C0.19769832 7.17010894 -0.19622241 4.21878192 0 0 Z " fill="#6B6A68" transform="translate(30,140)"/>
<path d="M0 0 C2.57146057 2.57146057 2.80117997 4.6050417 3.625 8.125 C3.88539063 9.22070312 4.14578125 10.31640625 4.4140625 11.4453125 C4.70410156 12.70988281 4.70410156 12.70988281 5 14 C4.01 14 3.02 14 2 14 C1.67 13.01 1.34 12.02 1 11 C0.01 11 -0.98 11 -2 11 C-2 10.34 -2 9.68 -2 9 C-1.34 9 -0.68 9 0 9 C-0.33 8.01 -0.66 7.02 -1 6 C-0.72428861 3.99124558 -0.39764263 1.98821313 0 0 Z " fill="#CDC7C5" transform="translate(227,80)"/>
<path d="M0 0 C0 3.44360632 -0.79591532 4.74795392 -2.5 7.6875 C-2.9640625 8.49574219 -3.428125 9.30398437 -3.90625 10.13671875 C-4.2671875 10.75160156 -4.628125 11.36648437 -5 12 C-4.01 12.33 -3.02 12.66 -2 13 C-3.32 14.32 -4.64 15.64 -6 17 C-6.33 16.34 -6.66 15.68 -7 15 C-7.66 14.67 -8.32 14.34 -9 14 C-7.68918099 11.85312331 -6.37643389 9.70746901 -5.0625 7.5625 C-4.68931641 6.95083984 -4.31613281 6.33917969 -3.93164062 5.70898438 C-1.11328125 1.11328125 -1.11328125 1.11328125 0 0 Z " fill="#B6B1AF" transform="translate(82,162)"/>
<path d="M0 0 C0.99 0.33 1.98 0.66 3 1 C2.46930939 4.82097239 1.50298434 7.06171403 -1 10 C-3.31 9.01 -5.62 8.02 -8 7 C-8 6.67 -8 6.34 -8 6 C-4.535 5.505 -4.535 5.505 -1 5 C-0.67 3.35 -0.34 1.7 0 0 Z M-3 10 C-1 11 -1 11 -1 11 Z " fill="#C7C0C0" transform="translate(134,139)"/>
<path d="M0 0 C1.8125 1.5 1.8125 1.5 3 3 C0.69 3 -1.62 3 -4 3 C-4.33 3.99 -4.66 4.98 -5 6 C-6.65 5.67 -8.3 5.34 -10 5 C-10 4.01 -10 3.02 -10 2 C-6.53030166 0.41385219 -3.8262394 -0.50345255 0 0 Z " fill="#60534F" transform="translate(156,227)"/>
<path d="M0 0 C0.99 0.33 1.98 0.66 3 1 C2.443125 1.391875 1.88625 1.78375 1.3125 2.1875 C-3.77354616 6.17386051 -7.8660456 11.07050798 -12 16 C-12.33 15.01 -12.66 14.02 -13 13 C-11.21188257 11.01752198 -9.41974481 9.03896272 -7.625 7.0625 C-7.11710937 6.49853516 -6.60921875 5.93457031 -6.0859375 5.35351562 C-2.2265625 1.11328125 -2.2265625 1.11328125 0 0 Z " fill="#6A6A69" transform="translate(55,53)"/>
<path d="M0 0 C0.66 0.33 1.32 0.66 2 1 C1.67 4.63 1.34 8.26 1 12 C-0.33333333 12 -1.66666667 12 -3 12 C-3.36923077 4.61538462 -3.36923077 4.61538462 -1.5 1.5 C-1.005 1.005 -0.51 0.51 0 0 Z " fill="#878281" transform="translate(87,34)"/>
<path d="M0 0 C0.33 0 0.66 0 1 0 C1.19466332 1.79090253 1.38051213 3.58276505 1.5625 5.375 C1.66691406 6.37273437 1.77132812 7.37046875 1.87890625 8.3984375 C2 11 2 11 1 13 C0.01 12.67 -0.98 12.34 -2 12 C-2.05395478 10.37536158 -2.09277195 8.75021459 -2.125 7.125 C-2.14820312 6.22007813 -2.17140625 5.31515625 -2.1953125 4.3828125 C-2 2 -2 2 0 0 Z " fill="#A09C99" transform="translate(34,95)"/>
<path d="M0 0 C-2.51382212 1.67588141 -4.82947288 2.94030311 -7.5625 4.1875 C-8.34753906 4.55230469 -9.13257812 4.91710937 -9.94140625 5.29296875 C-10.62074219 5.52628906 -11.30007812 5.75960938 -12 6 C-12.66 5.67 -13.32 5.34 -14 5 C-9.74279208 0.26976898 -6.32534473 -1.80724135 0 0 Z " fill="#D6D1CE" transform="translate(74,17)"/>
<path d="M0 0 C0.33 1.32 0.66 2.64 1 4 C-2.75623886 4.76832158 -5.32676253 5.01330689 -9 4 C-9.99 4.33 -10.98 4.66 -12 5 C-12 4.34 -12 3.68 -12 3 C-10.37604003 2.49663233 -8.75079459 1.99741024 -7.125 1.5 C-6.22007813 1.2215625 -5.31515625 0.943125 -4.3828125 0.65625 C-2 0 -2 0 0 0 Z " fill="#CCCAC9" transform="translate(96,10)"/>
<path d="M0 0 C3 3.625 3 3.625 3 7 C2.34 7 1.68 7 1 7 C1.99 8.32 2.98 9.64 4 11 C1.13275314 10.42655063 0.1385485 10.1385485 -2 8 C-2.25 5 -2.25 5 -2 2 C-1.34 1.34 -0.68 0.68 0 0 Z " fill="#544D50" transform="translate(89,195)"/>
<path d="M0 0 C-0.33 1.32 -0.66 2.64 -1 4 C-3.60582371 4.93065133 -4.64198224 5.14917407 -7.25 4.0625 C-7.8275 3.711875 -8.405 3.36125 -9 3 C-8.34 3 -7.68 3 -7 3 C-6.67 2.01 -6.34 1.02 -6 0 C-3 -1 -3 -1 0 0 Z " fill="#B7B5B5" transform="translate(105,226)"/>
<path d="M0 0 C0.99 0.99 1.98 1.98 3 3 C2.34 4.32 1.68 5.64 1 7 C2.32 6.67 3.64 6.34 5 6 C4.67 7.98 4.34 9.96 4 12 C0.92203555 9.5177706 0.05603723 8.25432283 -0.8125 4.3125 C-0.874375 3.219375 -0.93625 2.12625 -1 1 C-0.67 0.67 -0.34 0.34 0 0 Z " fill="#B5B0AE" transform="translate(19,170)"/>
<path d="M0 0 C0.23460938 0.63421875 0.46921875 1.2684375 0.7109375 1.921875 C1.82290908 4.18250739 1.82290908 4.18250739 4.1640625 4.828125 C4.97617188 4.96734375 5.78828125 5.1065625 6.625 5.25 C7.44226563 5.39953125 8.25953125 5.5490625 9.1015625 5.703125 C9.72804687 5.80109375 10.35453125 5.8990625 11 6 C9.69140625 7.51171875 9.69140625 7.51171875 8 9 C4.35265021 8.77669287 2.61627165 8.61627165 0 6 C-0.125 2.875 -0.125 2.875 0 0 Z " fill="#CCC6C6" transform="translate(124,96)"/>
<path d="M0 0 C4.85466286 0.44133299 8.48550017 2.73113725 12 6 C12.33 6.99 12.66 7.98 13 9 C10.17861734 7.63051988 7.4834041 6.14363329 4.8125 4.5 C4.11769531 4.0771875 3.42289063 3.654375 2.70703125 3.21875 C1 2 1 2 0 0 Z " fill="#EAE5E4" transform="translate(178,24)"/>
<path d="M0 0 C0.33 0.66 0.66 1.32 1 2 C-0.1796875 4.3828125 -0.1796875 4.3828125 -1.875 7.125 C-2.42929688 8.03507813 -2.98359375 8.94515625 -3.5546875 9.8828125 C-4.03164062 10.58148438 -4.50859375 11.28015625 -5 12 C-5.33 12 -5.66 12 -6 12 C-6.125 5.25 -6.125 5.25 -5 3 C-3.68 3 -2.36 3 -1 3 C-0.67 2.01 -0.34 1.02 0 0 Z " fill="#B19896" transform="translate(102,165)"/>
<path d="M0 0 C0.66 0.66 1.32 1.32 2 2 C1.66384435 6.81823105 -0.00927064 10.67232747 -2 15 C-2.66 15 -3.32 15 -4 15 C-3.79503906 14.25234375 -3.59007812 13.5046875 -3.37890625 12.734375 C-3.10949219 11.74953125 -2.84007812 10.7646875 -2.5625 9.75 C-2.29566406 8.77546875 -2.02882812 7.8009375 -1.75390625 6.796875 C-1.14455416 4.53627347 -0.55761745 2.27377991 0 0 Z " fill="#9E9997" transform="translate(227,147)"/>
<path d="M0 0 C1.32 0 2.64 0 4 0 C4 1.65 4 3.3 4 5 C4.66 5 5.32 5 6 5 C6.33 5.66 6.66 6.32 7 7 C9.52733235 7.65555119 9.52733235 7.65555119 12 8 C10.3125 9.1875 10.3125 9.1875 8 10 C3.83981817 8.27504656 1.9501857 6.00301275 0 2 C0 1.34 0 0.68 0 0 Z " fill="#CEC8C7" transform="translate(97,138)"/>
<path d="M0 0 C6.01451379 4.55152395 6.01451379 4.55152395 8 8 C8.1875 10.75 8.1875 10.75 8 13 C6.04595302 11.23205273 4.79878054 9.66195132 3.4375 7.375 C2.22087094 4.88809625 2.22087094 4.88809625 0 4 C0 2.68 0 1.36 0 0 Z " fill="#D5CCCA" transform="translate(89,55)"/>
<path d="M0 0 C0.99 0 1.98 0 3 0 C1.60485497 4.43909781 -0.47695811 6.98024981 -4 10 C-6.3125 10.8125 -6.3125 10.8125 -8 11 C-7.236875 10.29875 -6.47375 9.5975 -5.6875 8.875 C-3.03409522 6.03647396 -1.55999257 3.53050949 0 0 Z " fill="#CEC9C7" transform="translate(72,177)"/>
<path d="M0 0 C2.475 0.99 2.475 0.99 5 2 C4.67 2.99 4.34 3.98 4 5 C3.01 5 2.02 5 1 5 C0.67 5.99 0.34 6.98 0 8 C-0.99 7.01 -1.98 6.02 -3 5 C-2.01 3.35 -1.02 1.7 0 0 Z " fill="#C9C5C4" transform="translate(100,90)"/>
<path d="M0 0 C0.99 0 1.98 0 3 0 C3.99 3.63 4.98 7.26 6 11 C5.01 11 4.02 11 3 11 C2.01 7.37 1.02 3.74 0 0 Z " fill="#977A7A" transform="translate(34,143)"/>
<path d="M0 0 C7.625 0.875 7.625 0.875 11 2 C11 2.66 11 3.32 11 4 C11.66 4.33 12.32 4.66 13 5 C8.02693484 4.50269348 4.36200187 3.44697666 0 1 C0 0.67 0 0.34 0 0 Z " fill="#E8E3E0" transform="translate(149,11)"/>
<path d="M0 0 C0.33 0.99 0.66 1.98 1 3 C-2.21311475 8.73770492 -2.21311475 8.73770492 -6 10 C-5.57742724 8.5164999 -5.13643678 7.03823576 -4.6875 5.5625 C-4.32205078 4.32693359 -4.32205078 4.32693359 -3.94921875 3.06640625 C-3.63597656 2.38449219 -3.32273438 1.70257813 -3 1 C-2.01 0.67 -1.02 0.34 0 0 Z " fill="#ACA5A3" transform="translate(193,200)"/>
<path d="M0 0 C0.66 0 1.32 0 2 0 C0.58832253 5.26170694 -1.74850232 8.72171358 -5 13 C-5.66 12.67 -6.32 12.34 -7 12 C-5.88407791 9.99492073 -4.75701288 7.99603904 -3.625 6 C-2.68527344 4.329375 -2.68527344 4.329375 -1.7265625 2.625 C-1.15679687 1.75875 -0.58703125 0.8925 0 0 Z " fill="#CDCAC8" transform="translate(197,164)"/>
<path d="M0 0 C0.33 0.66 0.66 1.32 1 2 C-1.97 2.66 -4.94 3.32 -8 4 C-8 2.68 -8 1.36 -8 0 C-4.97878489 -0.97110486 -2.99536737 -1.13617383 0 0 Z " fill="#817A78" transform="translate(98,32)"/>
<path d="M0 0 C2.40921705 2.40921705 3.53812156 4.94334509 5 8 C5.66 7.67 6.32 7.34 7 7 C6.67 9.64 6.34 12.28 6 15 C3.75848118 12.75848118 3.03698675 10.9932888 1.875 8.0625 C1.52179687 7.18722656 1.16859375 6.31195313 0.8046875 5.41015625 C0 3 0 3 0 0 Z " fill="#98918F" transform="translate(9,154)"/>
<path d="M0 0 C4 4.625 4 4.625 4 8 C3.67 7.67 3.34 7.34 3 7 C2.34 7.66 1.68 8.32 1 9 C0.01 8.34 -0.98 7.68 -2 7 C-1.42415568 4.61435923 -0.77772405 2.33317216 0 0 Z " fill="#BDB7B7" transform="translate(147,151)"/>
<path d="M0 0 C1.8871875 0.0309375 1.8871875 0.0309375 3.8125 0.0625 C2.8225 0.3925 1.8325 0.7225 0.8125 1.0625 C0.8125 1.7225 0.8125 2.3825 0.8125 3.0625 C-3.6425 3.5575 -3.6425 3.5575 -8.1875 4.0625 C-7.8575 3.0725 -7.5275 2.0825 -7.1875 1.0625 C-4.43671116 0.14557039 -2.82801087 -0.04636083 0 0 Z " fill="#E6E0DE" transform="translate(82.1875,11.9375)"/>
<path d="M0 0 C0.33 0.99 0.66 1.98 1 3 C-0.28548409 4.33929505 -1.57858155 5.67128643 -2.875 7 C-3.59429687 7.7425 -4.31359375 8.485 -5.0546875 9.25 C-7 11 -7 11 -9 11 C-7.49770909 7.17598678 -5.1988409 5.4791017 -2 3 C-1.34 2.01 -0.68 1.02 0 0 Z " fill="#867F7C" transform="translate(201,195)"/>
<path d="M0 0 C0.33 0.66 0.66 1.32 1 2 C3.31 2 5.62 2 8 2 C4.59882859 4.10048591 2.24940894 4.14947274 -1.6875 3.75 C-2.66074219 3.66234375 -3.63398437 3.5746875 -4.63671875 3.484375 C-5.41660156 3.32453125 -6.19648437 3.1646875 -7 3 C-7.33 2.34 -7.66 1.68 -8 1 C-5.36 1.33 -2.72 1.66 0 2 C0 1.34 0 0.68 0 0 Z " fill="#D9D4D2" transform="translate(42,108)"/>
<path d="M0 0 C0.66 0 1.32 0 2 0 C2 0.99 2 1.98 2 3 C3.32 2.67 4.64 2.34 6 2 C5.0234375 3.69270833 4.046875 5.38541667 3.0703125 7.078125 C1.98847641 9.02069199 0.99437778 11.01124445 0 13 C0 8.71 0 4.42 0 0 Z " fill="#77706D" transform="translate(88,33)"/>
<path d="M0 0 C4.55384615 -0.36923077 4.55384615 -0.36923077 6.8125 1.5 C7.204375 1.995 7.59625 2.49 8 3 C7.67 3.99 7.34 4.98 7 6 C3.63279613 4.60667426 2.0140476 3.0210714 0 0 Z " fill="#B4AFAC" transform="translate(32,194)"/>
<path d="M0 0 C0.66 0 1.32 0 2 0 C5 4.38461538 5 4.38461538 5 7 C5.99 7 6.98 7 8 7 C8 8.65 8 10.3 8 12 C3.80186938 8.25572134 1.92223883 5.1596937 0 0 Z " fill="#B6B0B0" transform="translate(75,67)"/>
<path d="M0 0 C2.95409701 1.37154504 5.44008376 2.98863724 8 5 C6.02 5.99 6.02 5.99 4 7 C4 6.34 4 5.68 4 5 C1.525 4.01 1.525 4.01 -1 3 C-0.67 2.01 -0.34 1.02 0 0 Z " fill="#CDCCCA" transform="translate(177,25)"/>
<path d="M0 0 C0.66 0.33 1.32 0.66 2 1 C1.835 1.598125 1.67 2.19625 1.5 2.8125 C0.8885876 5.11344336 0.8885876 5.11344336 1 8 C-0.32 7.67 -1.64 7.34 -3 7 C-1.125 1.125 -1.125 1.125 0 0 Z " fill="#CBC8C6" transform="translate(134,70)"/>
<path d="M0 0 C1.8125 0.125 1.8125 0.125 4 1 C5.75 4.0625 5.75 4.0625 7 7 C4 7 4 7 1.8125 5.1875 C0 3 0 3 0 0 Z " fill="#D5D1D2" transform="translate(182,53)"/>
<path d="M0 0 C4.455 0.99 4.455 0.99 9 2 C9 2.33 9 2.66 9 3 C7.02 3 5.04 3 3 3 C3 3.66 3 4.32 3 5 C1.02 5.66 -0.96 6.32 -3 7 C-1.125 2.25 -1.125 2.25 0 0 Z " fill="#A39E9D" transform="translate(169,50)"/>
<path d="M0 0 C2.9375 1.625 2.9375 1.625 6 4 C6.875 7.25 6.875 7.25 7 10 C6.34 9.67 5.68 9.34 5 9 C5 8.34 5 7.68 5 7 C4.34 7 3.68 7 3 7 C0 2.61538462 0 2.61538462 0 0 Z " fill="#E5E0DC" transform="translate(202,43)"/>
<path d="M0 0 C2.5761382 3.8642073 3.18466897 5.62817334 2.5625 10.25 C2.376875 11.1575 2.19125 12.065 2 13 C1.67 13 1.34 13 1 13 C0.51171875 10.98177083 0.0234375 8.96354167 -0.46484375 6.9453125 C-0.94846992 4.9414343 -0.94846992 4.9414343 -2 3 C-1.34 2.01 -0.68 1.02 0 0 Z " fill="#BEB8B9" transform="translate(149,32)"/>
<path d="M0 0 C0.99 0.33 1.98 0.66 3 1 C3 2.32 3 3.64 3 5 C3.33 5.66 3.66 6.32 4 7 C2.35 6.67 0.7 6.34 -1 6 C-1.33 4.35 -1.66 2.7 -2 1 C-1.34 0.67 -0.68 0.34 0 0 Z " fill="#B0A8A9" transform="translate(73,218)"/>
<path d="M0 0 C0.33 0 0.66 0 1 0 C1 1.65 1 3.3 1 5 C1.99 5.33 2.98 5.66 4 6 C4.33 8.31 4.66 10.62 5 13 C1.93918797 10.24526918 0.10117137 8.00425951 -1 4 C-0.625 1.6875 -0.625 1.6875 0 0 Z " fill="#D3CDCB" transform="translate(145,86)"/>
<path d="M0 0 C0.66 0.33 1.32 0.66 2 1 C0.75 3.9375 0.75 3.9375 -1 7 C-3.1875 7.875 -3.1875 7.875 -5 8 C-5.33 7.34 -5.66 6.68 -6 6 C-5.34 6 -4.68 6 -4 6 C-3.71125 5.195625 -3.4225 4.39125 -3.125 3.5625 C-2 1 -2 1 0 0 Z " fill="#D9D4D3" transform="translate(30,46)"/>
<path d="M0 0 C4.12751449 0.60698743 7.3321148 2.03810791 11 4 C10.01 4.66 9.02 5.32 8 6 C4.375 4.8125 4.375 4.8125 1 3 C0.67 2.01 0.34 1.02 0 0 Z " fill="#DAD5D1" transform="translate(160,14)"/>
<path d="M0 0 C0.66 0.33 1.32 0.66 2 1 C1.01 3.31 0.02 5.62 -1 8 C-1.66 8 -2.32 8 -3 8 C-3.75 6.25 -3.75 6.25 -4 4 C-2.0625 1.75 -2.0625 1.75 0 0 Z " fill="#BDB9B6" transform="translate(188,202)"/>
<path d="M0 0 C3.465 1.485 3.465 1.485 7 3 C3.86501708 4.85776765 1.62528568 5.20140476 -2 5 C-1.34 3.35 -0.68 1.7 0 0 Z " fill="#96908F" transform="translate(60,182)"/>
<path d="M0 0 C0.763125 0.20625 1.52625 0.4125 2.3125 0.625 C3 2.4375 3 2.4375 3.3125 4.625 C1.875 6.375 1.875 6.375 0.3125 7.625 C0.3125 5.975 0.3125 4.325 0.3125 2.625 C-2.6575 2.13 -2.6575 2.13 -5.6875 1.625 C-2.6875 -0.375 -2.6875 -0.375 0 0 Z " fill="#B8B2B1" transform="translate(109.6875,135.375)"/>
<path d="M0 0 C2.52259061 1.97420135 2.9929808 2.96745642 3.6875 6.1875 C3.790625 7.115625 3.89375 8.04375 4 9 C3.01 9.33 2.02 9.66 1 10 C-0.60725635 6.78548731 -0.05748185 3.56387464 0 0 Z " fill="#D0C8C8" transform="translate(87,115)"/>
<path d="M0 0 C0.99 0.33 1.98 0.66 3 1 C3 1.66 3 2.32 3 3 C3.66 3 4.32 3 5 3 C5 3.66 5 4.32 5 5 C5.66 5.33 6.32 5.66 7 6 C3.625 5.6875 3.625 5.6875 0 5 C-0.66 4.01 -1.32 3.02 -2 2 C-1.34 1.34 -0.68 0.68 0 0 Z " fill="#D3CCCB" transform="translate(100,99)"/>
<path d="M0 0 C0.66 0.33 1.32 0.66 2 1 C2 4.3 2 7.6 2 11 C1.67 11 1.34 11 1 11 C1 9.35 1 7.7 1 6 C0.34 6 -0.32 6 -1 6 C-1 5.34 -1 4.68 -1 4 C-1.66 4 -2.32 4 -3 4 C-2.67 3.01 -2.34 2.02 -2 1 C-1.34 0.67 -0.68 0.34 0 0 Z " fill="#CCC6C5" transform="translate(110,89)"/>
<path d="M0 0 C0.33 0.99 0.66 1.98 1 3 C0.00390625 4.82421875 0.00390625 4.82421875 -1.4375 6.6875 C-1.91058594 7.31011719 -2.38367188 7.93273438 -2.87109375 8.57421875 C-3.24363281 9.04472656 -3.61617187 9.51523438 -4 10 C-4.625 8.1875 -4.625 8.1875 -5 6 C-3.42105792 3.63158688 -2.0245738 1.93254772 0 0 Z " fill="#DBD6D6" transform="translate(145,55)"/>
<path d="M0 0 C-1.98 0.99 -1.98 0.99 -4 2 C-3.67 2.66 -3.34 3.32 -3 4 C-5.31 3.67 -7.62 3.34 -10 3 C-9.67 2.01 -9.34 1.02 -9 0 C-2.25 -1.125 -2.25 -1.125 0 0 Z " fill="#3E3836" transform="translate(161,230)"/>
<path d="M0 0 C0.99 0.33 1.98 0.66 3 1 C3 2.98 3 4.96 3 7 C1.68 7 0.36 7 -1 7 C-1.33 5.68 -1.66 4.36 -2 3 C-1.34 3 -0.68 3 0 3 C0 2.01 0 1.02 0 0 Z " fill="#BAB2B1" transform="translate(99,115)"/>
<path d="M0 0 C1.9375 0.75 1.9375 0.75 4 2 C4.625 4.0625 4.625 4.0625 5 6 C5.66 6.33 6.32 6.66 7 7 C5.68 7 4.36 7 3 7 C0 2.92857143 0 2.92857143 0 0 Z " fill="#D7D4D1" transform="translate(151,101)"/>
<path d="M0 0 C3 1 3 1 4.75 3.8125 C6.05483179 7.13982105 6.02866653 7.79584277 5 11 C4.16426177 9.35538655 3.33147118 7.70927487 2.5 6.0625 C2.0359375 5.14597656 1.571875 4.22945312 1.09375 3.28515625 C0 1 0 1 0 0 Z " fill="#A19E98" transform="translate(145,185)"/>
<path d="M0 0 C1.48828125 1.14453125 1.48828125 1.14453125 3 3 C3.29296875 5.69921875 3.29296875 5.69921875 3.1875 8.6875 C3.16042969 9.68136719 3.13335937 10.67523438 3.10546875 11.69921875 C3.07066406 12.45847656 3.03585938 13.21773437 3 14 C2.67 14 2.34 14 2 14 C1.92652344 12.93458984 1.92652344 12.93458984 1.8515625 11.84765625 C1.73941406 10.46900391 1.73941406 10.46900391 1.625 9.0625 C1.55539063 8.14597656 1.48578125 7.22945313 1.4140625 6.28515625 C1.27742187 5.53105469 1.14078125 4.77695313 1 4 C0.34 3.67 -0.32 3.34 -1 3 C-0.67 2.01 -0.34 1.02 0 0 Z " fill="#D6D0CE" transform="translate(205,88)"/>
<path d="M0 0 C2.31 0 4.62 0 7 0 C4.38485683 2.12038635 1.80362384 4.13091744 -1 6 C-0.67 4.02 -0.34 2.04 0 0 Z " fill="#857F7E" transform="translate(56,52)"/>
<path d="M0 0 C1.65 0.33 3.3 0.66 5 1 C5 1.99 5 2.98 5 4 C2.36 3.67 -0.28 3.34 -3 3 C-2.01 2.67 -1.02 2.34 0 2 C0 1.34 0 0.68 0 0 Z " fill="#B5ACAB" transform="translate(83,224)"/>
<path d="M0 0 C0.99 0.33 1.98 0.66 3 1 C2.125 5.75 2.125 5.75 1 8 C0.01 7.67 -0.98 7.34 -2 7 C-1.34 4.69 -0.68 2.38 0 0 Z " fill="#DBD8D8" transform="translate(134,139)"/>
<path d="M0 0 C0 3 0 3 -1.3125 4.38671875 C-2.875 5.59114583 -4.4375 6.79557292 -6 8 C-5.65120368 4.74456771 -4.97866739 3.98126893 -2.4375 1.75 C-1.633125 1.1725 -0.82875 0.595 0 0 Z " fill="#726B67" transform="translate(208,189)"/>
<path d="M0 0 C0.66 0.33 1.32 0.66 2 1 C0.35 2.98 -1.3 4.96 -3 7 C-3.66 6.01 -4.32 5.02 -5 4 C-3.35 2.68 -1.7 1.36 0 0 Z " fill="#B6B1AD" transform="translate(202,192)"/>
<path d="M0 0 C0.99 0.33 1.98 0.66 3 1 C1.02 3.97 1.02 3.97 -1 7 C-1.66 6.34 -2.32 5.68 -3 5 C-2.01 3.35 -1.02 1.7 0 0 Z " fill="#736E6B" transform="translate(215,177)"/>
<path d="M0 0 C2.5 1.1875 2.5 1.1875 5 3 C5.3125 5.6875 5.3125 5.6875 5 8 C2.20127563 5.47211993 0.54226981 3.79588866 0 0 Z " fill="#D4CACA" transform="translate(149,157)"/>
<path d="M0 0 C0.66 0 1.32 0 2 0 C1.45276317 3.37462715 0.9451 5.08235 -1 8 C-1.625 5.6875 -1.625 5.6875 -2 3 C-1.34 2.01 -0.68 1.02 0 0 Z " fill="#D2CAC8" transform="translate(8,87)"/>
<path d="M0 0 C2.4375 0.625 2.4375 0.625 5 2 C5.8125 5.125 5.8125 5.125 6 8 C1.125 3.375 1.125 3.375 0 0 Z " fill="#BDB6B6" transform="translate(188,60)"/>
</svg>
