<?xml version="1.0" encoding="UTF-8"?>
<svg version="1.1" xmlns="http://www.w3.org/2000/svg" width="182" height="264">
<path d="M0 0 C3 1.625 3 1.625 6 4 C8.81571057 5.52398806 11.65845205 6.98521488 14.51171875 8.4375 C17 10 17 10 18.5 12.12890625 C19.88154377 14.23314896 19.88154377 14.23314896 22.48828125 14.65234375 C23.42027344 14.74644531 24.35226563 14.84054688 25.3125 14.9375 C30.80705704 15.77220814 33.25912959 16.88504255 37 21 C38.97958237 24.29930395 40 26.15073315 40 30 C40.99 29.896875 41.98 29.79375 43 29.6875 C47.78020496 29.67776435 51.45914763 31.90684161 55 35 C56.64615069 37.6547446 57 38.81425467 57 42 C58.051875 42.2475 59.10375 42.495 60.1875 42.75 C64.82981615 44.09111355 67.73185804 46.41482255 70.75 50.1875 C72.70594676 54.5883802 73 59.21274648 73 64 C74.52620876 65.50846152 74.52620876 65.50846152 76.4375 67 C79.89830508 69.79661017 79.89830508 69.79661017 81 72 C81.04022391 74.3329866 81.04320247 76.66706666 81 79 C78.525 79.99 78.525 79.99 76 81 C75.81377075 82.8404187 75.81377075 82.8404187 75.6237793 84.71801758 C74.97936847 91.08294814 74.3336127 97.44774199 73.6875 103.8125 C73.56283356 105.0406543 73.43816711 106.26880859 73.3097229 107.53417969 C71.28424522 127.47618149 69.23956609 147.41618609 67.1875 167.35546875 C67.06476023 168.54827768 66.94202045 169.74108662 66.81556129 170.97004128 C65.56586194 183.11468237 64.3155525 195.25926017 63.06344414 207.40365314 C62.58622266 212.03347048 62.10951818 216.66334096 61.63291931 221.29322243 C61.40889875 223.46820347 61.18464098 225.64316009 60.96012878 227.81809044 C60.6488455 230.83374371 60.33837484 233.84947966 60.02807617 236.86523438 C59.93822795 237.73363858 59.84837973 238.60204279 59.75580883 239.49676228 C59.67056108 240.32681876 59.58531332 241.15687525 59.4974823 242.01208496 C59.37346322 243.21800545 59.37346322 243.21800545 59.24693871 244.44828796 C59.06671808 246.31057661 58.90306563 248.17449011 58.7491703 250.03913879 C58.66636503 251.03962753 58.58355976 252.04011627 58.49824524 253.07092285 C58.390344 254.44775112 58.390344 254.44775112 58.28026295 255.8523941 C58 258 58 258 57 259 C55.40577964 259.09597204 53.8072955 259.12187924 52.21018982 259.12025452 C51.17387421 259.12162918 50.13755859 259.12300385 49.06983948 259.12442017 C47.92329391 259.12082489 46.77674835 259.11722961 45.59545898 259.11352539 C44.39562378 259.11367142 43.19578857 259.11381744 41.95959473 259.1139679 C38.66014809 259.11338894 35.36076336 259.10835978 32.0613277 259.10139394 C28.61665703 259.09515973 25.17198562 259.09455655 21.72731018 259.09336853 C15.2001727 259.09025541 8.67305189 259.08204229 2.14592177 259.07201904 C-5.28322016 259.0608573 -12.71236286 259.0553473 -20.14151108 259.05032361 C-35.42768372 259.03985966 -50.71383972 259.0222606 -66 259 C-66.18743019 257.23501411 -66.18743019 257.23501411 -66.37864685 255.43437195 C-69.37884166 227.18709354 -72.39347912 198.94140236 -75.42993164 170.69799805 C-75.85385149 166.75468336 -76.27733697 162.81132239 -76.70043945 158.86791992 C-76.80573282 157.8868181 -76.91102619 156.90571629 -77.01951027 155.89488411 C-77.23136574 153.9204944 -77.44310603 151.94609233 -77.65472984 149.97167778 C-78.17191559 145.15107824 -78.69253501 140.33089789 -79.22085571 135.51150513 C-80.1182242 127.30992689 -81.0031288 119.10957713 -81.77478504 110.89506626 C-82.09381779 107.51661517 -82.42894779 104.13985803 -82.76595879 100.7631588 C-82.91762666 99.19699255 -83.06123243 97.63002152 -83.19618416 96.06232643 C-83.38062766 93.92404621 -83.59232328 91.79011123 -83.81030273 89.6550293 C-83.92027084 88.45935837 -84.03023895 87.26368744 -84.14353943 86.03178406 C-85.21733109 82.23066987 -86.86831087 81.27218436 -90 79 C-90.6875 75.6875 -90.6875 75.6875 -90 72 C-88.6022166 70.1603641 -87.05795564 68.55528643 -85.45703125 66.890625 C-83.33772379 64.14063891 -82.99726884 61.44013801 -82.4140625 58.078125 C-81.84224752 55.20826112 -80.81423669 53.28459435 -79 51 C-78.21625 50.5875 -77.4325 50.175 -76.625 49.75 C-73.73410576 47.82273717 -73.14918524 46.66334295 -71.625 43.625 C-69.2534076 39.07450708 -66.71329229 36.15983844 -62 34 C-60.824375 33.87625 -59.64875 33.7525 -58.4375 33.625 C-54.00591323 32.81925695 -53.03149342 31.08808706 -50.40625 27.625 C-49 26 -49 26 -46.375 25.0625 C-43.49752224 23.77520732 -43.36896212 23.04891478 -42.125 20.25 C-40.03331975 15.65667018 -37.39795033 12.54618177 -33 10 C-30.246647 9.25669938 -27.8898475 9.13983133 -25 9 C-20.8941077 8.7135424 -20.24850861 8.28487573 -17.4375 5.0625 C-16.633125 4.051875 -15.82875 3.04125 -15 2 C-10.39422855 -0.96156057 -5.27935072 -0.61927868 0 0 Z " fill="#B9B9B9" transform="translate(94,5)"/>
<path d="M0 0 C3 1.625 3 1.625 6 4 C8.81571057 5.52398806 11.65845205 6.98521488 14.51171875 8.4375 C17 10 17 10 18.5 12.12890625 C19.88154377 14.23314896 19.88154377 14.23314896 22.48828125 14.65234375 C23.42027344 14.74644531 24.35226563 14.84054688 25.3125 14.9375 C30.80705704 15.77220814 33.25912959 16.88504255 37 21 C38.97958237 24.29930395 40 26.15073315 40 30 C40.99 29.896875 41.98 29.79375 43 29.6875 C47.78020496 29.67776435 51.45914763 31.90684161 55 35 C56.64615069 37.6547446 57 38.81425467 57 42 C58.051875 42.2475 59.10375 42.495 60.1875 42.75 C64.82981615 44.09111355 67.73185804 46.41482255 70.75 50.1875 C72.70594676 54.5883802 73 59.21274648 73 64 C74.13520279 64.93538393 75.30867237 65.82473297 76.5 66.6875 C79.65298136 69.25683089 79.95187893 69.5737848 80.4375 73.875 C80.293125 74.90625 80.14875 75.9375 80 77 C75.99070234 76.42724319 73.43022411 75.09160006 70 73 C63.61260851 70.24180822 57.24841377 69.93622375 50.75 72.4375 C49.4980364 72.95359545 48.2477885 73.4738905 47 74 C42.09009734 75.67655213 39.48735759 74.19968509 35 72 C35 71.34 35 70.68 35 70 C32.79095369 70.08775663 30.58271407 70.19594367 28.375 70.3125 C27.14523438 70.37050781 25.91546875 70.42851563 24.6484375 70.48828125 C20.67512741 71.04556564 16.92414507 72.07585493 14 75 C11.8125 75.3125 11.8125 75.3125 9 75 C8.13375 74.34 7.2675 73.68 6.375 73 C0.83444561 69.71670851 -4.72943168 70.26830951 -10.8984375 71.6484375 C-15.28685102 72.68534674 -15.28685102 72.68534674 -19 75 C-21.6976054 75.49047371 -23.42436631 75.36584719 -25.7578125 73.8828125 C-26.39460938 73.42648438 -27.03140625 72.97015625 -27.6875 72.5 C-32.46421835 69.32150696 -36.42593783 69.46913694 -42 70 C-43.30517578 70.11988281 -43.30517578 70.11988281 -44.63671875 70.2421875 C-46.76142693 70.46232995 -48.88148086 70.72664269 -51 71 C-51 71.66 -51 72.32 -51 73 C-53.37438077 72.0766297 -55.67770511 71.17873654 -57.90795898 69.94189453 C-60.21423121 68.9035472 -61.70944314 68.76782439 -64.22265625 68.8046875 C-65.00833984 68.81113281 -65.79402344 68.81757812 -66.60351562 68.82421875 C-67.41498047 68.84097656 -68.22644531 68.85773438 -69.0625 68.875 C-69.87783203 68.88402344 -70.69316406 68.89304687 -71.53320312 68.90234375 C-73.04571382 68.91974322 -74.55818693 68.94125817 -76.07055664 68.96826172 C-80.92775994 69.04816004 -80.92775994 69.04816004 -84 67 C-83.505 66.505 -83.505 66.505 -83 66 C-82.84196224 64.41962235 -82.72348896 62.83520326 -82.625 61.25 C-82.23448115 57.10221651 -81.76996248 54.26459864 -79 51 C-77.824375 50.38125 -77.824375 50.38125 -76.625 49.75 C-73.73410576 47.82273717 -73.14918524 46.66334295 -71.625 43.625 C-69.2534076 39.07450708 -66.71329229 36.15983844 -62 34 C-60.824375 33.87625 -59.64875 33.7525 -58.4375 33.625 C-54.00591323 32.81925695 -53.03149342 31.08808706 -50.40625 27.625 C-49 26 -49 26 -46.375 25.0625 C-43.49752224 23.77520732 -43.36896212 23.04891478 -42.125 20.25 C-40.03331975 15.65667018 -37.39795033 12.54618177 -33 10 C-30.246647 9.25669938 -27.8898475 9.13983133 -25 9 C-20.8941077 8.7135424 -20.24850861 8.28487573 -17.4375 5.0625 C-16.633125 4.051875 -15.82875 3.04125 -15 2 C-10.39422855 -0.96156057 -5.27935072 -0.61927868 0 0 Z " fill="#CDCDCC" transform="translate(94,5)"/>
<path d="M0 0 C1.2263757 2.45275141 1.11415314 4.0505781 1.09765625 6.7890625 C1.09443359 7.73007813 1.09121094 8.67109375 1.08789062 9.640625 C1.07532227 11.11789063 1.07532227 11.11789063 1.0625 12.625 C1.05798828 13.61757812 1.05347656 14.61015625 1.04882812 15.6328125 C1.03702145 18.0886016 1.020554 20.54427104 1 23 C1.66 23 2.32 23 3 23 C2.24415835 30.5584165 2.24415835 30.5584165 1.01147461 32.7878418 C-0.2048759 35.4480764 -0.39550334 37.62011622 -0.59765625 40.53515625 C-0.67693359 41.59154297 -0.75621094 42.64792969 -0.83789062 43.73632812 C-0.94907227 45.3827832 -0.94907227 45.3827832 -1.0625 47.0625 C-1.21674999 49.24112173 -1.37415799 51.41952282 -1.53515625 53.59765625 C-1.600979 54.56195557 -1.66680176 55.52625488 -1.73461914 56.51977539 C-2 59 -2 59 -3 62 C-6.44360694 61.44902289 -9.03312924 59.86625019 -12.0078125 58.1171875 C-17.42804293 55.0776073 -22.76251219 52.63974234 -29 52 C-29 52.66 -29 53.32 -29 54 C-27.02 54.66 -25.04 55.32 -23 56 C-26 57 -26 57 -30 57 C-30 56.34 -30 55.68 -30 55 C-32.31 55 -34.62 55 -37 55 C-37 54.34 -37 53.68 -37 53 C-34.69 53 -32.38 53 -30 53 C-30 52.34 -30 51.68 -30 51 C-39.57 51 -49.14 51 -59 51 C-59.80617685 34.97723503 -60.13190181 19.04128924 -60 3 C-59.04287109 2.80083984 -59.04287109 2.80083984 -58.06640625 2.59765625 C-57.24011719 2.42105469 -56.41382812 2.24445313 -55.5625 2.0625 C-54.73878906 1.88847656 -53.91507812 1.71445313 -53.06640625 1.53515625 C-51.02338796 1.19247006 -51.02338796 1.19247006 -50 0 C-47.89778307 -0.09968672 -45.79207396 -0.12968203 -43.6875 -0.125 C-42.53636719 -0.12757812 -41.38523437 -0.13015625 -40.19921875 -0.1328125 C-37.58748263 -0.02438878 -35.47692016 0.22940262 -33 1 C-33 1.99 -33 2.98 -33 4 C-32.34 4 -31.68 4 -31 4 C-30.855625 5.134375 -30.71125 6.26875 -30.5625 7.4375 C-30.38828522 10.80777201 -30.38828522 10.80777201 -29 12 C-28.95875 10.906875 -28.9175 9.81375 -28.875 8.6875 C-28 5 -28 5 -25.625 3.25 C-24.42875 2.8375 -23.2325 2.425 -22 2 C-21.18917969 1.71125 -20.37835938 1.4225 -19.54296875 1.125 C-12.95842819 -0.98506736 -6.79239606 -1.66676878 0 0 Z " fill="#BCBCBC" transform="translate(134,84)"/>
<path d="M0 0 C0.33 0 0.66 0 1 0 C1.09765625 6.15234375 1.09765625 6.15234375 1 8 C0.67 8.33 0.34 8.66 0 9 C1.32 9.66 2.64 10.32 4 11 C4.33 10.67 4.66 10.34 5 10 C24.17108434 8.59036145 24.17108434 8.59036145 32 15 C32 14.34 32 13.68 32 13 C46.93399022 8.9598867 46.93399022 8.9598867 53.234375 12.12109375 C54.59128157 13.02144717 55.9370838 13.93882933 57.26953125 14.875 C59.73508984 16.47789136 61.12462566 16.57507487 64 16 C66.71346235 15.10445017 69.35143569 14.0693994 72 13 C76.61668188 11.46110604 81.17850044 11.46735227 86 12 C89.375 14 89.375 14 92 16 C96.25697737 16.72680101 98.50013584 15.36477308 102 13 C105.00313748 11.49843126 107.79067522 11.90718796 111.125 11.9375 C112.40632813 11.94652344 113.68765625 11.95554687 115.0078125 11.96484375 C116.48894531 11.98224609 116.48894531 11.98224609 118 12 C118 12.66 118 13.32 118 14 C123.33396569 15.77798856 126.55998947 16.44283002 131.76953125 14.2578125 C139.02218086 11.25375645 144.79996326 10.93280052 152.1875 13.8125 C155.85435965 15.4199689 159.45722772 17.13538301 163 19 C163 17.35 163 15.7 163 14 C163.33 14 163.66 14 164 14 C164 16.31 164 18.62 164 21 C161.525 21.99 161.525 21.99 159 23 C158.01 33.23 157.02 43.46 156 54 C155.67 54 155.34 54 155 54 C155.02094727 53.01604248 155.04189453 52.03208496 155.06347656 51.01831055 C155.13587842 47.36757969 155.1817995 43.71691225 155.21972656 40.06567383 C155.23984186 38.48548715 155.26713804 36.90537491 155.30175781 35.32543945 C155.35028343 33.05401252 155.37296809 30.78356942 155.390625 28.51171875 C155.41127014 27.80536789 155.43191528 27.09901703 155.45318604 26.3712616 C155.4546465 23.17861479 155.41545009 21.45508184 153.21875 19.04882812 C149.81266282 17.43873234 146.43042761 17.68570082 142.75 17.8125 C141.63238281 17.83280273 141.63238281 17.83280273 140.4921875 17.85351562 C138.66114584 17.88872796 136.83047831 17.94253149 135 18 C134.71125 18.639375 134.4225 19.27875 134.125 19.9375 C133 22 133 22 131 23 C129.00039988 23.039992 126.99952758 23.04346799 125 23 C124.67 22.01 124.34 21.02 124 20 C119.29602731 18.81924572 114.69391429 18.78094006 109.875 18.75 C109.06417969 18.729375 108.25335938 18.70875 107.41796875 18.6875 C106.63808594 18.68234375 105.85820313 18.6771875 105.0546875 18.671875 C104.34812012 18.6625293 103.64155273 18.65318359 102.91357422 18.64355469 C100.45153197 19.10216424 99.67476896 20.19746993 98 22 C95.3125 22.6875 95.3125 22.6875 93 23 C93 22.34 93 21.68 93 21 C80.93537868 17.97870696 80.93537868 17.97870696 69.1875 20.4375 C68.465625 20.953125 67.74375 21.46875 67 22 C63.6875 22.6875 63.6875 22.6875 61 23 C60.505 21.515 60.505 21.515 60 20 C57.02026385 19.91815577 54.04283168 19.85910236 51.0625 19.8125 C50.23169922 19.78736328 49.40089844 19.76222656 48.54492188 19.73632812 C42.49797101 19.66574115 37.60483651 20.74535602 32 23 C32 24.98 32 26.96 32 29 C31.01 29.495 31.01 29.495 30 30 C29.7215625 28.824375 29.7215625 28.824375 29.4375 27.625 C28.17222931 24.62447572 28.17222931 24.62447572 24.5 23.75 C23.345 23.5025 22.19 23.255 21 23 C20.34 22.67 19.68 22.34 19 22 C12.27719394 21.20874188 12.27719394 21.20874188 5.9765625 23.1171875 C4.1828875 24.6199136 4.1828875 24.6199136 2 27 C1.67 27 1.34 27 1 27 C0.67 29.31 0.34 31.62 0 34 C-0.33 34 -0.66 34 -1 34 C-1.01417969 33.39671875 -1.02835938 32.7934375 -1.04296875 32.171875 C-1.19097077 29.69184111 -1.40277656 27.41412855 -2 25 C-3.64295195 23.63755204 -5.30824337 22.30135125 -7 21 C-7.6875 17.6875 -7.6875 17.6875 -7 14 C-5.58742618 12.11517517 -4.0360256 10.47252891 -2.40234375 8.77734375 C-0.17326611 5.95218964 -0.14421671 3.53330934 0 0 Z " fill="#5C5C5B" transform="translate(11,63)"/>
<path d="M0 0 C0.33 0 0.66 0 1 0 C1.09765625 6.15234375 1.09765625 6.15234375 1 8 C0.67 8.33 0.34 8.66 0 9 C1.32 9.66 2.64 10.32 4 11 C4.33 10.67 4.66 10.34 5 10 C24.17108434 8.59036145 24.17108434 8.59036145 32 15 C32 14.34 32 13.68 32 13 C36.455 12.505 36.455 12.505 41 12 C32 18 32 18 29 18 C29.495 21.465 29.495 21.465 30 25 C30.66 25 31.32 25 32 25 C31.505 27.475 31.505 27.475 31 30 C30.34 29.01 29.68 28.02 29 27 C26.60868066 24.03931891 24.71009451 23.57078377 21 23 C20.34 22.67 19.68 22.34 19 22 C12.27719394 21.20874188 12.27719394 21.20874188 5.9765625 23.1171875 C4.1828875 24.6199136 4.1828875 24.6199136 2 27 C1.67 27 1.34 27 1 27 C0.67 29.31 0.34 31.62 0 34 C-0.33 34 -0.66 34 -1 34 C-1.01417969 33.39671875 -1.02835938 32.7934375 -1.04296875 32.171875 C-1.19097077 29.69184111 -1.40277656 27.41412855 -2 25 C-3.64295195 23.63755204 -5.30824337 22.30135125 -7 21 C-7.6875 17.6875 -7.6875 17.6875 -7 14 C-5.58742618 12.11517517 -4.0360256 10.47252891 -2.40234375 8.77734375 C-0.17326611 5.95218964 -0.14421671 3.53330934 0 0 Z " fill="#9C9C9C" transform="translate(11,63)"/>
<path d="M0 0 C2.37610141 2.37610141 2.33952085 3.24342307 2.625 6.5 C2.73714844 7.69109375 2.73714844 7.69109375 2.8515625 8.90625 C2.94812655 10.2683114 3 11.63451992 3 13 C4.13520279 13.93538393 5.30867237 14.82473297 6.5 15.6875 C9.65298136 18.25683089 9.95187893 18.5737848 10.4375 22.875 C10.293125 23.90625 10.14875 24.9375 10 26 C5.99070234 25.42724319 3.43022411 24.09160006 0 22 C-6.38739149 19.24180822 -12.75158623 18.93622375 -19.25 21.4375 C-20.5019636 21.95359545 -21.7522115 22.4738905 -23 23 C-27.90990266 24.67655213 -30.51264241 23.19968509 -35 21 C-35 20.34 -35 19.68 -35 19 C-37.20904631 19.08775663 -39.41728593 19.19594367 -41.625 19.3125 C-43.46964844 19.39951172 -43.46964844 19.39951172 -45.3515625 19.48828125 C-49.32487259 20.04556564 -53.07585493 21.07585493 -56 24 C-58.1875 24.3125 -58.1875 24.3125 -61 24 C-61.86625 23.34 -62.7325 22.68 -63.625 22 C-69.16555439 18.71670851 -74.72943168 19.26830951 -80.8984375 20.6484375 C-85.28685102 21.68534674 -85.28685102 21.68534674 -89 24 C-92.67636433 24.5251949 -94.03733844 23.97816054 -97.3125 22.0625 C-98.199375 21.381875 -99.08625 20.70125 -100 20 C-100 19.67 -100 19.34 -100 19 C-98.35 19 -96.7 19 -95 19 C-95 19.66 -95 20.32 -95 21 C-92.95737483 20.71512349 -90.91592973 20.42177949 -88.875 20.125 C-87.16957031 19.88136719 -87.16957031 19.88136719 -85.4296875 19.6328125 C-82.01785765 19.09249291 -82.01785765 19.09249291 -78.9375 17.9375 C-75.81848415 16.94206941 -73.38444533 16.79550133 -70.125 16.875 C-69.15820312 16.89304687 -68.19140625 16.91109375 -67.1953125 16.9296875 C-66.10863281 16.96449219 -66.10863281 16.96449219 -65 17 C-64.34 18.32 -63.68 19.64 -63 21 C-57.79099503 20.16285489 -57.79099503 20.16285489 -53.5 17.5 C-50.8376039 14.8376039 -47.61366455 14.31885275 -44 14 C-32.26684498 14.65806478 -32.26684498 14.65806478 -28.95703125 18.1640625 C-28.31121094 18.76992187 -27.66539062 19.37578125 -27 20 C-24.27548644 19.82262477 -24.27548644 19.82262477 -21.4375 18.75 C-14.27140235 16.644904 -7.26551129 15.91452917 0 18 C0 17.01 0 16.02 0 15 C0.15373063 13.10307388 0.32166855 11.20727167 0.5 9.3125 C0.5928125 8.31863281 0.685625 7.32476562 0.78125 6.30078125 C0.8534375 5.54152344 0.925625 4.78226563 1 4 C0.01 3.505 0.01 3.505 -1 3 C-0.67 2.01 -0.34 1.02 0 0 Z " fill="#C3C3C3" transform="translate(164,56)"/>
<path d="M0 0 C2.93359375 1.91015625 2.93359375 1.91015625 5 4 C5 4.66 5 5.32 5 6 C4.01 6 3.02 6 2 6 C2 5.34 2 4.68 2 4 C-3.61 3.67 -9.22 3.34 -15 3 C-15.66 4.32 -16.32 5.64 -17 7 C-20.5 7.5 -20.5 7.5 -24 8 C-25.51294288 9.93597032 -25.51294288 9.93597032 -26 12 C-26.99 8.04 -26.99 8.04 -28 4 C-29.051875 4.2784375 -29.051875 4.2784375 -30.125 4.5625 C-33 5 -33 5 -35.765625 4.41015625 C-39.61043174 3.92259018 -41.97251732 4.63469558 -45.625 5.875 C-49.08724809 7.0290827 -52.45611555 8.11402889 -56 9 C-56.33 15.6 -56.66 22.2 -57 29 C-57.33 29 -57.66 29 -58 29 C-58.495 18.605 -58.495 18.605 -59 8 C-59.66 8 -60.32 8 -61 8 C-61 7.01 -61 6.02 -61 5 C-75.78106093 3.84850681 -75.78106093 3.84850681 -88.7265625 9.60546875 C-89.14679688 10.06566406 -89.56703125 10.52585937 -90 11 C-90.4125 10.195625 -90.825 9.39125 -91.25 8.5625 C-92.6825228 5.93894641 -92.6825228 5.93894641 -94.65625 5.375 C-97.84781708 4.86434927 -101.02501188 4.64652701 -104.25 4.4375 C-105.51328125 4.35371094 -106.7765625 4.26992187 -108.078125 4.18359375 C-109.04234375 4.12300781 -110.0065625 4.06242187 -111 4 C-110.67 3.34 -110.34 2.68 -110 2 C-107.39576408 1.97302863 -104.79180756 1.95317511 -102.1875 1.9375 C-101.08051758 1.92493164 -101.08051758 1.92493164 -99.95117188 1.91210938 C-96.70077932 1.89740172 -94.10595105 1.96468298 -91 3 C-90.67 3.66 -90.34 4.32 -90 5 C-85.40938382 3.83563059 -85.40938382 3.83563059 -81.09765625 1.9453125 C-74.95016372 -0.82506589 -67.1226806 0.83155062 -61 3 C-60.01 3.33 -59.02 3.66 -58 4 C-58 4.66 -58 5.32 -58 6 C-53.67628107 3.97366931 -53.67628107 3.97366931 -50 1 C-47.02411188 0.80023653 -44.1617886 0.7219186 -41.1875 0.75 C-40.37990234 0.74226563 -39.57230469 0.73453125 -38.74023438 0.7265625 C-34.43481551 0.74066707 -30.85606057 0.84848487 -27 3 C-26.505 3.99 -26.505 3.99 -26 5 C-23.25276753 5.41990073 -23.25276753 5.41990073 -20 5 C-18.7625 3.7625 -18.7625 3.7625 -17.5 2.5 C-12.92811827 -1.7792813 -5.78900552 -0.98176117 0 0 Z " fill="#9B9B9B" transform="translate(162,80)"/>
<path d="M0 0 C6.75196942 -0.62262013 10.71104558 -0.07039287 16.25 3.8828125 C18.60517661 5.38634042 20.27384512 5.46734084 23 5 C23.99 4.67 24.98 4.34 26 4 C25.875 5.8125 25.875 5.8125 25 8 C21.9375 9.75 21.9375 9.75 19 11 C19 10.34 19 9.68 19 9 C16.02026385 8.91815577 13.04283168 8.85910236 10.0625 8.8125 C9.23169922 8.78736328 8.40089844 8.76222656 7.54492188 8.73632812 C1.49797101 8.66574115 -3.39516349 9.74535602 -9 12 C-9 12.66 -9 13.32 -9 14 C-9.66 14 -10.32 14 -11 14 C-11.33 11.69 -11.66 9.38 -12 7 C-10.56705502 6.15885829 -9.12845595 5.32734313 -7.6875 4.5 C-6.88699219 4.0359375 -6.08648437 3.571875 -5.26171875 3.09375 C-3 2 -3 2 0 2 C0 1.34 0 0.68 0 0 Z " fill="#737373" transform="translate(52,74)"/>
<path d="M0 0 C1.20807993 3.62423978 0.76857287 4.31912737 -0.8125 7.6875 C-6.71694876 18.81511496 -17.56477317 23.29374353 -29.01953125 26.96875 C-48.69867813 32.31553708 -68.49147617 28.953166 -86 19 C-86.95648438 18.4946875 -87.91296875 17.989375 -88.8984375 17.46875 C-89.59195313 16.9840625 -90.28546875 16.499375 -91 16 C-91 15.01 -91 14.02 -91 13 C-91.66 13 -92.32 13 -93 13 C-93.66 11.35 -94.32 9.7 -95 8 C-92 9 -92 9 -89.9375 11.6875 C-82.46228599 20.93724553 -69.42108767 24.5451276 -58.05322266 25.81469727 C-42.29002354 27.2373213 -28.82297413 24.29391933 -14 19 C-14 18.34 -14 17.68 -14 17 C-12.34928604 15.97388051 -10.68029994 14.97691857 -9 14 C-6.0992423 11.54669961 -4.57799621 8.64732618 -2.8125 5.3125 C-2.28269531 4.31863281 -1.75289063 3.32476562 -1.20703125 2.30078125 C-0.80871094 1.54152344 -0.41039062 0.78226563 0 0 Z " fill="#818181" transform="translate(138,168)"/>
<path d="M0 0 C2 2 2 2 2.21850586 5.67822266 C2.06088096 12.53170892 1.24193325 19.33835861 0.50390625 26.1484375 C0.34892751 27.61133322 0.1943896 29.0742757 0.04026794 30.53726196 C-0.36462223 34.37043786 -0.77496322 38.20300981 -1.18664551 42.03546143 C-1.68348562 46.66913008 -2.17443193 51.30342601 -2.665658 55.93769264 C-3.04842165 59.5484538 -3.43219636 63.15909527 -3.81944275 66.76937866 C-4.54053865 73.52119216 -5.22337039 80.26718229 -5.74085999 87.03799438 C-6 89 -6 89 -7 90 C-8.70772358 90.08713831 -10.41898649 90.10700007 -12.12890625 90.09765625 C-13.68061523 90.09282227 -13.68061523 90.09282227 -15.26367188 90.08789062 C-16.35228516 90.07951172 -17.44089844 90.07113281 -18.5625 90.0625 C-20.2012207 90.05573242 -20.2012207 90.05573242 -21.87304688 90.04882812 C-24.58208495 90.03699826 -27.29101599 90.02051543 -30 90 C-30 89.67 -30 89.34 -30 89 C-22.74 89 -15.48 89 -8 89 C-7.9175 85.90625 -7.835 82.8125 -7.75 79.625 C-7.35476595 68.59274381 -6.10105448 57.73739614 -4.72235107 46.79672241 C-3.44521341 36.60861483 -2.50676612 26.51954222 -2.328125 16.24023438 C-2.20531409 10.56900193 -1.38667063 5.50785574 0 0 Z " fill="#737373" transform="translate(158,174)"/>
<path d="M0 0 C1.20269531 -0.01417969 2.40539062 -0.02835937 3.64453125 -0.04296875 C7.16833425 0.18625328 9.90879528 0.91719021 13.1875 2.1875 C13.1875 2.8475 13.1875 3.5075 13.1875 4.1875 C17.91268656 2.92055919 17.91268656 2.92055919 22.453125 1.1328125 C25.97761798 -0.08565507 29.02731318 -0.07728724 32.75 -0.0625 C34.05066406 -0.06765625 35.35132813 -0.0728125 36.69140625 -0.078125 C39.85579413 0.16229777 41.56107522 0.50338029 44.1875 2.1875 C44.1875 3.1775 44.1875 4.1675 44.1875 5.1875 C40.15006405 5.25833221 36.70585444 5.30059551 32.75 4.4375 C28.39239456 4.13170313 26.1096571 5.35538852 22.27734375 7.26171875 C19.81072052 8.35440979 17.85880624 8.53218468 15.1875 8.1875 C15.1875 7.5275 15.1875 6.8675 15.1875 6.1875 C10.55390419 4.38118299 6.71067084 3.94414803 1.75 4 C0.49316406 4.00644531 -0.76367188 4.01289062 -2.05859375 4.01953125 C-5.7304779 4.18382992 -9.18958414 4.60315873 -12.8125 5.1875 C-9.26797023 -0.04490109 -6.10181848 0.03249105 0 0 Z " fill="#E5E5E4" transform="translate(88.8125,66.8125)"/>
<path d="M0 0 C3.34051571 1.78629682 5.55683497 3.59088241 6.73046875 7.2421875 C1.85546875 6.3671875 1.85546875 6.3671875 0.73046875 5.2421875 C-1.72042007 5.11506058 -4.1306367 5.05698067 -6.58203125 5.0546875 C-7.25943359 5.04244141 -7.93683594 5.03019531 -8.63476562 5.01757812 C-12.32888757 5.00674492 -15.19272326 5.08540543 -18.26953125 7.2421875 C-20.73779629 11.52917415 -20.86895858 16.40369128 -21.26953125 21.2421875 C-21.59953125 21.2421875 -21.92953125 21.2421875 -22.26953125 21.2421875 C-22.2953125 20.63890625 -22.32109375 20.035625 -22.34765625 19.4140625 C-22.67285108 14.13683411 -22.67285108 14.13683411 -25.33203125 9.6796875 C-25.97140625 9.2053125 -26.61078125 8.7309375 -27.26953125 8.2421875 C-26.34140625 7.6440625 -25.41328125 7.0459375 -24.45703125 6.4296875 C-21.40933196 4.48106333 -21.40933196 4.48106333 -19.64453125 2.6171875 C-14.71946364 -2.30788011 -6.25539044 -2.08871901 0 0 Z " fill="#333333" transform="translate(32.26953125,75.7578125)"/>
<path d="M0 0 C1.98 0.66 3.96 1.32 6 2 C5.01 2.495 5.01 2.495 4 3 C4.33 5.31 4.66 7.62 5 10 C5.66 10 6.32 10 7 10 C6.67 11.65 6.34 13.3 6 15 C5.34 14.01 4.68 13.02 4 12 C1.60868066 9.03931891 -0.28990549 8.57078377 -4 8 C-4.66 7.67 -5.32 7.34 -6 7 C-12.71016951 6.20017458 -12.71016951 6.20017458 -18.98828125 8.1171875 C-20.38646494 9.3453687 -21.70083083 10.6675188 -23 12 C-23.66 12 -24.32 12 -25 12 C-23.65842336 5.53603984 -23.65842336 5.53603984 -20.8984375 3.2890625 C-17.20892198 1.64817285 -14.33878396 1.63623488 -10.3125 1.6875 C-9.63638672 1.68427734 -8.96027344 1.68105469 -8.26367188 1.67773438 C-3.26758205 1.73241795 -3.26758205 1.73241795 -1 4 C-0.01 4 0.98 4 2 4 C1.34 2.68 0.68 1.36 0 0 Z " fill="#A2A2A1" transform="translate(36,78)"/>
<path d="M0 0 C2.37610141 2.37610141 2.33952085 3.24342307 2.625 6.5 C2.69976562 7.2940625 2.77453125 8.088125 2.8515625 8.90625 C2.94812655 10.2683114 3 11.63451992 3 13 C4.13520279 13.93538393 5.30867237 14.82473297 6.5 15.6875 C9.65298136 18.25683089 9.95187893 18.5737848 10.4375 22.875 C10.2209375 24.421875 10.2209375 24.421875 10 26 C5.99070234 25.42724319 3.43022411 24.09160006 0 22 C-6.43627099 19.22070116 -13.25477563 19.25929694 -20 21 C-20 20.34 -20 19.68 -20 19 C-16.32241949 17.31138318 -13.47573354 16.75071896 -9.4375 16.8125 C-8.50808594 16.81894531 -7.57867187 16.82539062 -6.62109375 16.83203125 C-4.27361898 16.98246555 -2.24945456 17.33839572 0 18 C0 17.01 0 16.02 0 15 C0.15373063 13.10307388 0.32166855 11.20727167 0.5 9.3125 C0.5928125 8.31863281 0.685625 7.32476562 0.78125 6.30078125 C0.8534375 5.54152344 0.925625 4.78226563 1 4 C0.34 3.67 -0.32 3.34 -1 3 C-0.67 2.01 -0.34 1.02 0 0 Z " fill="#A6A6A6" transform="translate(164,56)"/>
<path d="M0 0 C0.33 0 0.66 0 1 0 C1.38747372 12.42068542 0.20013125 24.65077713 -1 37 C0.485 37.495 0.485 37.495 2 38 C2.6875 40.0625 2.6875 40.0625 3 42 C2.05125 41.154375 1.1025 40.30875 0.125 39.4375 C-1.24237873 38.2825825 -2.61807355 37.13747014 -4 36 C-5.07121094 35.11828125 -5.07121094 35.11828125 -6.1640625 34.21875 C-13.20090438 28.85286388 -20.61063131 26.42732401 -29 24 C-29 23.34 -29 22.68 -29 22 C-24.08542945 21.67482541 -20.97293642 22.61096481 -16.5625 24.75 C-15.49128906 25.26046875 -14.42007813 25.7709375 -13.31640625 26.296875 C-9.80892827 28.098124 -6.40801346 30.01809584 -3 32 C-2.94465088 31.20827393 -2.88930176 30.41654785 -2.83227539 29.60083008 C-2.57898892 26.00447841 -2.32079614 22.40849519 -2.0625 18.8125 C-1.97548828 17.56662109 -1.88847656 16.32074219 -1.79882812 15.03710938 C-1.71181641 13.83505859 -1.62480469 12.63300781 -1.53515625 11.39453125 C-1.456604 10.28956299 -1.37805176 9.18459473 -1.29711914 8.04614258 C-1.02949273 5.30236714 -0.59727427 2.68882812 0 0 Z " fill="#AFAFAF" transform="translate(134,114)"/>
<path d="M0 0 C2.93359375 1.91015625 2.93359375 1.91015625 5 4 C5 4.66 5 5.32 5 6 C4.01 6 3.02 6 2 6 C2 5.34 2 4.68 2 4 C-3.61 3.67 -9.22 3.34 -15 3 C-15.66 4.32 -16.32 5.64 -17 7 C-19.33333333 7.33333333 -21.66666667 7.66666667 -24 8 C-25.51294288 9.93597032 -25.51294288 9.93597032 -26 12 C-26.66 9.36 -27.32 6.72 -28 4 C-29.65 4.33 -31.3 4.66 -33 5 C-33 4.01 -33 3.02 -33 2 C-35.22988284 2.08750555 -37.45896005 2.19569061 -39.6875 2.3125 C-40.92886719 2.37050781 -42.17023438 2.42851563 -43.44921875 2.48828125 C-47.09205715 3.01326676 -48.97249093 4.01049404 -52 6 C-54.3125 5.6875 -54.3125 5.6875 -56 5 C-55.195625 4.525625 -54.39125 4.05125 -53.5625 3.5625 C-51.15246512 2.23099846 -51.15246512 2.23099846 -50 1 C-47.07214072 0.87257293 -44.17833861 0.81478064 -41.25 0.8125 C-40.43789062 0.80025391 -39.62578125 0.78800781 -38.7890625 0.77539062 C-34.45921876 0.76481283 -30.87796354 0.82437085 -27 3 C-26.67 3.66 -26.34 4.32 -26 5 C-23.25276753 5.41990073 -23.25276753 5.41990073 -20 5 C-19.175 4.175 -18.35 3.35 -17.5 2.5 C-12.92811827 -1.7792813 -5.78900552 -0.98176117 0 0 Z " fill="#8B8C8C" transform="translate(162,80)"/>
<path d="M0 0 C0.66 0.99 1.32 1.98 2 3 C4.30144109 4.07136051 6.6340213 5.07989717 9 6 C9 6.33 9 6.66 9 7 C7.02 7 5.04 7 3 7 C3 6.34 3 5.68 3 5 C0.1033852 5.11430048 -2.79178316 5.2410424 -5.6875 5.375 C-6.50412109 5.4059375 -7.32074219 5.436875 -8.16210938 5.46875 C-12.56419448 5.68261648 -15.93185458 6.17844235 -20 8 C-22.8125 7.625 -22.8125 7.625 -25 7 C-18.3631479 -0.69874843 -9.67902299 -1.28049331 0 0 Z " fill="#D6D6D6" transform="translate(64,67)"/>
<path d="M0 0 C1.65 0 3.3 0 5 0 C4.88157257 7.2042873 4.75676728 14.40844461 4.62768555 21.61254883 C4.58457592 24.05946394 4.5428858 26.50640451 4.50268555 28.95336914 C4.44439742 32.48591765 4.38087671 36.01834079 4.31640625 39.55078125 C4.29969376 40.63144363 4.28298126 41.71210602 4.26576233 42.82551575 C4.13606339 49.58999809 3.70965589 56.27149003 3 63 C2.34 63 1.68 63 1 63 C0.85495402 50.78390522 1.09356904 38.58544873 1.4375 26.375 C1.45714813 25.63388977 1.47679626 24.89277954 1.49703979 24.12921143 C1.70535477 16.37732373 1.97096846 8.69611821 3 1 C2.01 0.67 1.02 0.34 0 0 Z " fill="#ABABAB" transform="translate(99,196)"/>
<path d="M0 0 C3.7910119 1.44950455 7.3874638 3.15172566 11 5 C11 3.35 11 1.7 11 0 C11.33 0 11.66 0 12 0 C12 2.31 12 4.62 12 7 C10.35 7.66 8.7 8.32 7 9 C6.01 19.23 5.02 29.46 4 40 C3.67 40 3.34 40 3 40 C3.01571045 39.01604248 3.0314209 38.03208496 3.04760742 37.01831055 C3.10190978 33.36751492 3.13635085 29.71675499 3.16479492 26.06567383 C3.17988094 24.48553464 3.2003525 22.90543731 3.22631836 21.32543945 C3.26271126 19.05409415 3.27972762 16.78330241 3.29296875 14.51171875 C3.30845261 13.80536789 3.32393646 13.09901703 3.33988953 12.3712616 C3.41492611 8.48872139 3.41492611 8.48872139 1.48168945 5.28051758 C0.99273193 4.85794678 0.50377441 4.43537598 0 4 C0 2.68 0 1.36 0 0 Z " fill="#676868" transform="translate(163,77)"/>
<path d="M0 0 C0.7425 0.0825 1.485 0.165 2.25 0.25 C4.63575841 1.27246789 5.51778297 2.91823451 7 5 C5.68644531 5.09796875 4.37289062 5.1959375 3.01953125 5.296875 C1.28377417 5.44699453 -0.45189892 5.59808743 -2.1875 5.75 C-3.05181641 5.811875 -3.91613281 5.87375 -4.80664062 5.9375 C-10.11712351 6.42582027 -13.01461171 7.19259992 -17 11 C-17.66 11 -18.32 11 -19 11 C-19 9.35 -19 7.7 -19 6 C-6.42636457 -0.93717817 -6.42636457 -0.93717817 0 0 Z " fill="#383837" transform="translate(59,75)"/>
<path d="M0 0 C2.43383793 1.47505329 2.91140288 2.71035971 4.0625 5.25 C2.91652344 5.20359375 1.77054688 5.1571875 0.58984375 5.109375 C-0.94007791 5.07183091 -2.47002801 5.03543359 -4 5 C-4.75216797 4.96648437 -5.50433594 4.93296875 -6.27929688 4.8984375 C-12.05619378 4.79840465 -15.08679045 6.16318483 -19.9375 9.25 C-22.375 9 -22.375 9 -23.9375 8.25 C-23.133125 8.0025 -22.32875 7.755 -21.5 7.5 C-20.2315625 6.88125 -20.2315625 6.88125 -18.9375 6.25 C-18.793125 5.610625 -18.64875 4.97125 -18.5 4.3125 C-17.9375 2.25 -17.9375 2.25 -15.4375 0.5 C-10.1435043 -1.39071275 -5.43098861 -1.38663539 0 0 Z " fill="#3C3C3C" transform="translate(160.9375,75.75)"/>
<path d="M0 0 C1.25425781 0.02707031 2.50851563 0.05414063 3.80078125 0.08203125 C4.75339844 0.11683594 5.70601562 0.15164062 6.6875 0.1875 C6.6875 0.8475 6.6875 1.5075 6.6875 2.1875 C5.99785156 2.21328125 5.30820313 2.2390625 4.59765625 2.265625 C-1.42054555 2.62886352 -6.06854914 3.57435627 -11.4375 6.34765625 C-13.3125 7.1875 -13.3125 7.1875 -16.3125 7.1875 C-16.6425 13.7875 -16.9725 20.3875 -17.3125 27.1875 C-17.6425 27.1875 -17.9725 27.1875 -18.3125 27.1875 C-18.6425 20.2575 -18.9725 13.3275 -19.3125 6.1875 C-19.9725 6.1875 -20.6325 6.1875 -21.3125 6.1875 C-20.9825 5.1975 -20.6525 4.2075 -20.3125 3.1875 C-19.095625 3.249375 -17.87875 3.31125 -16.625 3.375 C-13.67610245 3.52494394 -12.52564171 3.32575408 -10 1.6875 C-6.49756759 -0.267346 -3.98087828 -0.11161341 0 0 Z " fill="#999999" transform="translate(122.3125,81.8125)"/>
<path d="M0 0 C1.65 0 3.3 0 5 0 C5 0.66 5 1.32 5 2 C12.22393412 4.40797804 15.98187675 3.44818253 23 1 C22.67 1.66 22.34 2.32 22 3 C21.01 3.33 20.02 3.66 19 4 C18.67 4.99 18.34 5.98 18 7 C17.01 7.66 16.02 8.32 15 9 C17.31 8.34 19.62 7.68 22 7 C20.375 9 20.375 9 18 11 C14.75 11.25 14.75 11.25 12 11 C11.67 10.01 11.34 9.02 11 8 C6.900639 7.0672582 2.87956712 6.71174738 -1.3125 6.4375 C-2.56675781 6.35371094 -3.82101563 6.26992187 -5.11328125 6.18359375 C-6.54220703 6.09271484 -6.54220703 6.09271484 -8 6 C-8 5.67 -8 5.34 -8 5 C-1.565 4.505 -1.565 4.505 5 4 C3.35 3.01 1.7 2.02 0 1 C0 0.67 0 0.34 0 0 Z " fill="#646464" transform="translate(124,75)"/>
<path d="M0 0 C0.96679688 0.01804687 1.93359375 0.03609375 2.9296875 0.0546875 C4.01636719 0.08949219 4.01636719 0.08949219 5.125 0.125 C5.36992188 0.76953125 5.61484375 1.4140625 5.8671875 2.078125 C6.92077869 4.29477388 6.92077869 4.29477388 9.0703125 4.734375 C11.08854167 4.86458333 13.10677083 4.99479167 15.125 5.125 C14.795 5.785 14.465 6.445 14.125 7.125 C10.58911629 7.54098632 9.39393731 7.32990462 6.5 5.125 C0.95944561 1.84170851 -4.60443168 2.39330951 -10.7734375 3.7734375 C-15.16185102 4.81034674 -15.16185102 4.81034674 -18.875 7.125 C-22.55136433 7.6501949 -23.91233844 7.10316054 -27.1875 5.1875 C-28.074375 4.506875 -28.96125 3.82625 -29.875 3.125 C-29.875 2.795 -29.875 2.465 -29.875 2.125 C-28.225 2.125 -26.575 2.125 -24.875 2.125 C-24.875 2.785 -24.875 3.445 -24.875 4.125 C-22.83237483 3.84012349 -20.79092973 3.54677949 -18.75 3.25 C-17.04457031 3.00636719 -17.04457031 3.00636719 -15.3046875 2.7578125 C-11.89285765 2.21749291 -11.89285765 2.21749291 -8.8125 1.0625 C-5.69348415 0.06706941 -3.25944533 -0.07949867 0 0 Z " fill="#9B9B9A" transform="translate(93.875,72.875)"/>
<path d="M0 0 C0 0.99 0 1.98 0 3 C-0.639375 2.835 -1.27875 2.67 -1.9375 2.5 C-9.30128837 1.29774884 -14.47500402 1.72500211 -21.15234375 5.22265625 C-21.76207031 5.47917969 -22.37179688 5.73570313 -23 6 C-23.66 5.67 -24.32 5.34 -25 5 C-24.67 3.68 -24.34 2.36 -24 1 C-16.31423353 -1.62014766 -7.56943018 -3.60449056 0 0 Z " fill="#E5E5E5" transform="translate(165,68)"/>
<path d="M0 0 C0 0.66 0 1.32 0 2 C1.65 2 3.3 2 5 2 C3 4 3 4 0 4.3125 C-0.99 4.209375 -1.98 4.10625 -3 4 C-3.66 3.01 -4.32 2.02 -5 1 C-12.26776332 -0.28699975 -19.19909425 1.52157881 -26 4 C-25.67 2.68 -25.34 1.36 -25 0 C-6.77419355 -4.51612903 -6.77419355 -4.51612903 0 0 Z " fill="#CECECC" transform="translate(104,73)"/>
<path d="M0 0 C1.98 0.66 3.96 1.32 6 2 C5.01 2.495 5.01 2.495 4 3 C4 4.65 4 6.3 4 8 C1.69 7.34 -0.62 6.68 -3 6 C-3 5.34 -3 4.68 -3 4 C-5.39614575 4.14165893 -7.79182897 4.28818841 -10.1875 4.4375 C-10.86103516 4.47681641 -11.53457031 4.51613281 -12.22851562 4.55664062 C-15.89699102 4.78927565 -19.41694206 5.17207011 -23 6 C-20.14021759 3.01022749 -18.87612555 2.04320344 -14.59375 1.83203125 C-13.22920363 1.82006155 -11.86459827 1.81377533 -10.5 1.8125 C-9.81035156 1.80025391 -9.12070312 1.78800781 -8.41015625 1.77539062 C-6.60522506 1.77011305 -4.80082158 1.87815542 -3 2 C-2.34 2.66 -1.68 3.32 -1 4 C-0.01 4 0.98 4 2 4 C1.34 2.68 0.68 1.36 0 0 Z " fill="#828281" transform="translate(36,78)"/>
<path d="M0 0 C9.72792487 -0.62807923 19.2484491 5.52831701 27 11 C27 11.66 27 12.32 27 13 C23.55776766 12.33864517 21.01011826 10.95684034 18 9.1875 C12.2250672 5.9532259 6.3293966 3.87783145 0 2 C0 1.34 0 0.68 0 0 Z " fill="#909090" transform="translate(105,136)"/>
<path d="M0 0 C0.804375 0.495 1.60875 0.99 2.4375 1.5 C-1.188571 2.70869033 -3.9948552 2.4531901 -7.8125 2.3125 C-13.92191283 2.1849168 -17.63776713 2.80645035 -22.5625 6.5 C-23.5525 6.83 -24.5425 7.16 -25.5625 7.5 C-24.23951153 3.5310346 -22.73302164 3.18947129 -19.0625 1.3125 C-12.09785002 -2.01266543 -7.17356593 -3.02044881 0 0 Z " fill="#313131" transform="translate(97.5625,78.5)"/>
<path d="M0 0 C0.33 0 0.66 0 1 0 C1.09765625 6.15234375 1.09765625 6.15234375 1 8 C0.67 8.33 0.34 8.66 0 9 C0.99 9.66 1.98 10.32 3 11 C2.07456291 12.34173403 1.13422595 13.67320159 0.1875 15 C-0.33457031 15.7425 -0.85664063 16.485 -1.39453125 17.25 C-1.92433594 17.8275 -2.45414063 18.405 -3 19 C-3.99 19 -4.98 19 -6 19 C-6.3125 16.375 -6.3125 16.375 -6 13 C-4.33752986 10.99651034 -2.67067133 8.99665598 -1 7 C-0.11994663 3.27302782 -0.11994663 3.27302782 0 0 Z " fill="#C9C9C9" transform="translate(11,63)"/>
<path d="M0 0 C0 0.66 0 1.32 0 2 C-1.08539063 2.38671875 -2.17078125 2.7734375 -3.2890625 3.171875 C-4.73452713 3.6974985 -6.17983118 4.22356372 -7.625 4.75 C-8.33785156 5.00265625 -9.05070312 5.2553125 -9.78515625 5.515625 C-14.31332739 7.17733918 -18.04594004 9.17567146 -22 12 C-23.3191582 12.69429379 -24.64649406 13.37530495 -26 14 C-23.49488331 7.97733604 -17.86209447 5.25747008 -12.1015625 2.7265625 C-7.81613787 1.10660305 -4.62498802 0 0 0 Z " fill="#828282" transform="translate(74,136)"/>
<path d="M0 0 C5.28137429 0.51525603 8.57221156 2.25477117 13 5 C13 4.34 13 3.68 13 3 C17.455 2.505 17.455 2.505 22 2 C14.3902439 7.07317073 14.3902439 7.07317073 10.625 6.875 C7.04071725 5.68023908 3.52062751 4.37244801 0 3 C0 2.01 0 1.02 0 0 Z " fill="#ABABA9" transform="translate(30,73)"/>
<path d="M0 0 C2 2 2 2 2.23046875 3.84765625 C2.12487926 9.29031448 1.68593335 14.59827486 1 20 C0.34 20 -0.32 20 -1 20 C-1.33 21.32 -1.66 22.64 -2 24 C-2.19676277 15.70316995 -2.25943749 8.04924606 0 0 Z " fill="#878787" transform="translate(158,174)"/>
<path d="M0 0 C0 0.33 0 0.66 0 1 C-1.53720703 1.07347656 -1.53720703 1.07347656 -3.10546875 1.1484375 C-4.4661706 1.22351071 -5.82684644 1.29905655 -7.1875 1.375 C-7.86103516 1.4059375 -8.53457031 1.436875 -9.22851562 1.46875 C-15.53112312 1.83768312 -19.72154133 3.6821117 -25 7 C-25.33 6.34 -25.66 5.68 -26 5 C-24.58833114 4.01364163 -23.17043816 3.03618745 -21.75 2.0625 C-20.96109375 1.51722656 -20.1721875 0.97195312 -19.359375 0.41015625 C-13.39753317 -3.15313001 -6.14925099 -3.0746255 0 0 Z " fill="#323232" transform="translate(131,79)"/>
<path d="M0 0 C0.33 0 0.66 0 1 0 C1 5.28 1 10.56 1 16 C-6.59 16 -14.18 16 -22 16 C-22 15.67 -22 15.34 -22 15 C-15.73 15 -9.46 15 -3 15 C-2.690625 12.89625 -2.38125 10.7925 -2.0625 8.625 C-1.125 2.25 -1.125 2.25 0 0 Z " fill="#999999" transform="translate(126,248)"/>
<path d="M0 0 C0.33 0.66 0.66 1.32 1 2 C-0.16917969 2.10957031 -1.33835937 2.21914062 -2.54296875 2.33203125 C-4.09121194 2.49154721 -5.63938558 2.65173914 -7.1875 2.8125 C-7.95642578 2.88275391 -8.72535156 2.95300781 -9.51757812 3.02539062 C-14.10337022 3.5174284 -17.12048625 4.33329093 -21 7 C-21.66 7 -22.32 7 -23 7 C-22.04464499 3.92163387 -20.99809344 2.99878674 -18.25 1.25 C-12.51954827 -1.01041273 -6.04001639 -0.22618647 0 0 Z " fill="#E8E8E8" transform="translate(64,67)"/>
<path d="M0 0 C0.33 0.66 0.66 1.32 1 2 C0.28714844 2.08636719 -0.42570312 2.17273438 -1.16015625 2.26171875 C-7.86684799 3.24560758 -11.74677701 4.75271332 -17 9 C-17.66 9 -18.32 9 -19 9 C-19.33 9.66 -19.66 10.32 -20 11 C-19.52525937 6.7273343 -17.15665032 4.726198 -14 2 C-9.55618306 -0.59222655 -4.99101118 -0.19572593 0 0 Z " fill="#575757" transform="translate(124,75)"/>
<path d="M0 0 C0.81210938 -0.01224609 1.62421875 -0.02449219 2.4609375 -0.03710938 C7.74130609 -0.0500093 11.63349516 0.44316344 16.125 3.4375 C17.25 5.1875 17.25 5.1875 16.9375 8.375 C16.710625 9.303125 16.48375 10.23125 16.25 11.1875 C15.92 11.1875 15.59 11.1875 15.25 11.1875 C14.59 8.5475 13.93 5.9075 13.25 3.1875 C11.6 3.5175 9.95 3.8475 8.25 4.1875 C8.25 3.1975 8.25 2.2075 8.25 1.1875 C6.02011716 1.27500555 3.79103995 1.38319061 1.5625 1.5 C0.32113281 1.55800781 -0.92023438 1.61601563 -2.19921875 1.67578125 C-5.84205715 2.20076676 -7.72249093 3.19799404 -10.75 5.1875 C-13.0625 4.875 -13.0625 4.875 -14.75 4.1875 C-13.945625 3.713125 -13.14125 3.23875 -12.3125 2.75 C-7.96763337 0.10069108 -5.17841321 0.00403303 0 0 Z " fill="#878787" transform="translate(120.75,80.8125)"/>
<path d="M0 0 C-1.11179163 3.33537489 -2.47411298 4.63707344 -5 7 C-4.67 7.66 -4.34 8.32 -4 9 C-4.33 9.66 -4.66 10.32 -5 11 C-5.22467831 12.53668865 -5.40796805 14.07968054 -5.5625 15.625 C-5.64628906 16.44226563 -5.73007813 17.25953125 -5.81640625 18.1015625 C-5.87699219 18.72804688 -5.93757812 19.35453125 -6 20 C-6.33 20 -6.66 20 -7 20 C-7.02578125 19.39671875 -7.0515625 18.7934375 -7.078125 18.171875 C-7.40331983 12.89464661 -7.40331983 12.89464661 -10.0625 8.4375 C-10.701875 7.963125 -11.34125 7.48875 -12 7 C-11.071875 6.401875 -10.14375 5.80375 -9.1875 5.1875 C-6.11316856 3.2345415 -6.11316856 3.2345415 -4.3125 1.25 C-3 0 -3 0 0 0 Z " fill="#585858" transform="translate(17,77)"/>
<path d="M0 0 C0 0.66 0 1.32 0 2 C-0.60585938 1.94199219 -1.21171875 1.88398437 -1.8359375 1.82421875 C-8.98238728 1.43940992 -14.0119485 3.09952609 -20 7 C-21.73031668 8.57224857 -21.73031668 8.57224857 -23 10 C-23 8.35 -23 6.7 -23 5 C-8.82120253 -2.82278481 -8.82120253 -2.82278481 0 0 Z " fill="#525251" transform="translate(63,76)"/>
<path d="M0 0 C0.66 0.99 1.32 1.98 2 3 C1.01 4.485 1.01 4.485 0 6 C-0.66 6 -1.32 6 -2 6 C-1.67 7.65 -1.34 9.3 -1 11 C-1.99 11.66 -2.98 12.32 -4 13 C-4.66 12.67 -5.32 12.34 -6 12 C-6.2475 12.639375 -6.495 13.27875 -6.75 13.9375 C-8 16 -8 16 -10.125 16.75 C-11.053125 16.87375 -11.053125 16.87375 -12 17 C-11.3125 14.6875 -11.3125 14.6875 -10 12 C-8.8553125 11.38125 -8.8553125 11.38125 -7.6875 10.75 C-3.65149936 8.12190656 -2.09029418 4.24285243 0 0 Z " fill="#B7B7B7" transform="translate(25,44)"/>
<path d="M0 0 C0.99 0.33 1.98 0.66 3 1 C3 1.66 3 2.32 3 3 C-0.14656903 2.69463301 -3.29208482 2.37951468 -6.4375 2.0625 C-7.33533203 1.97548828 -8.23316406 1.88847656 -9.15820312 1.79882812 C-10.01220703 1.71181641 -10.86621094 1.62480469 -11.74609375 1.53515625 C-12.53685303 1.456604 -13.3276123 1.37805176 -14.14233398 1.29711914 C-16 1 -16 1 -17 0 C-18.67542976 0.28604898 -20.34385343 0.61781233 -22 1 C-18.81410212 -5.37179576 -5.45461495 -1.9318428 0 0 Z " fill="#949494" transform="translate(101,83)"/>
<path d="M0 0 C3 1 3 1 5.0625 3.6875 C9.33138191 9.08867681 15.92216287 12.02424602 22 15 C20.3125 15.67578125 20.3125 15.67578125 18 16 C15.5625 14.85546875 15.5625 14.85546875 13 13.1875 C10.05062363 11.29468376 7.1683569 9.5035027 4 8 C4 7.01 4 6.02 4 5 C3.34 5 2.68 5 2 5 C1.34 3.35 0.68 1.7 0 0 Z " fill="#949494" transform="translate(43,176)"/>
<path d="M0 0 C-0.11430048 2.8966148 -0.2410424 5.79178316 -0.375 8.6875 C-0.4059375 9.50412109 -0.436875 10.32074219 -0.46875 11.16210938 C-0.67955924 15.50126633 -1.01738759 19.04283457 -3 23 C-3.33 23 -3.66 23 -4 23 C-3.96970703 22.44014404 -3.93941406 21.88028809 -3.90820312 21.3034668 C-3.77130816 18.76485502 -3.63564062 16.22617909 -3.5 13.6875 C-3.45230469 12.80642578 -3.40460938 11.92535156 -3.35546875 11.01757812 C-3.31035156 10.17001953 -3.26523438 9.32246094 -3.21875 8.44921875 C-3.17685547 7.66893311 -3.13496094 6.88864746 -3.09179688 6.0847168 C-3.01722476 4.39117604 -3 2.69518179 -3 1 C-1 0 -1 0 0 0 Z " fill="#ACACAC" transform="translate(132,183)"/>
<path d="M0 0 C2.1875 0.6875 2.1875 0.6875 3.625 2.1875 C5.88967889 4.36159173 8.14457737 4.34939749 11.1875 4.6875 C10.8575 5.3475 10.5275 6.0075 10.1875 6.6875 C6.2382432 6.13644091 2.83829826 5.29814629 -0.8125 3.6875 C-0.8125 3.0275 -0.8125 2.3675 -0.8125 1.6875 C-5.1025 1.6875 -9.3925 1.6875 -13.8125 1.6875 C-9.4007329 -1.25367807 -5.07046282 -0.56338476 0 0 Z " fill="#A0A0A0" transform="translate(129.8125,73.3125)"/>
<path d="M0 0 C1.27230469 0.00902344 2.54460937 0.01804687 3.85546875 0.02734375 C5.31919922 0.04474609 5.31919922 0.04474609 6.8125 0.0625 C6.8125 0.7225 6.8125 1.3825 6.8125 2.0625 C6.00425781 2.11148438 5.19601563 2.16046875 4.36328125 2.2109375 C3.29464844 2.28570312 2.22601563 2.36046875 1.125 2.4375 C-0.45861328 2.54191406 -0.45861328 2.54191406 -2.07421875 2.6484375 C-5.18550071 2.92942197 -5.18550071 2.92942197 -7.89453125 4.1640625 C-10.1875 5.0625 -10.1875 5.0625 -13.1875 4.0625 C-9.23682346 -0.26443145 -5.66914617 -0.05201052 0 0 Z " fill="#E8E8E8" transform="translate(89.1875,66.9375)"/>
<path d="M0 0 C1.8203125 1.52734375 1.8203125 1.52734375 3 3 C2.16597656 2.88140625 1.33195312 2.7628125 0.47265625 2.640625 C-6.39646189 1.85378443 -10.9896612 1.78831291 -17.12109375 5.07421875 C-19.48569511 6.23931339 -21.40155705 6.33528296 -24 6 C-23.42378906 5.71382813 -22.84757812 5.42765625 -22.25390625 5.1328125 C-20.83435014 4.41934409 -19.42380161 3.68736959 -18.02734375 2.9296875 C-12.18666521 -0.01794466 -6.52218956 -1.18682466 0 0 Z " fill="#D5D5D5" transform="translate(128,69)"/>
<path d="M0 0 C-1.58199631 0.64910154 -3.16565724 1.29414694 -4.75 1.9375 C-5.63171875 2.29714844 -6.5134375 2.65679687 -7.421875 3.02734375 C-11.34902108 4.50894886 -14.54749356 5.12430157 -18.75 5.0625 C-19.54921875 5.05347656 -20.3484375 5.04445312 -21.171875 5.03515625 C-21.77515625 5.02355469 -22.3784375 5.01195312 -23 5 C-19.12793624 2.41862416 -15.43923632 1.78746557 -10.9375 0.8125 C-9.69516602 0.52729492 -9.69516602 0.52729492 -8.42773438 0.23632812 C-7.63560547 0.06166016 -6.84347656 -0.11300781 -6.02734375 -0.29296875 C-4.94054321 -0.53309692 -4.94054321 -0.53309692 -3.83178711 -0.77807617 C-2 -1 -2 -1 0 0 Z " fill="#7A7A7A" transform="translate(119,191)"/>
<path d="M0 0 C7.47510614 -0.4418782 12.95188746 -0.73330547 19 4 C20.4375 6.25 20.4375 6.25 21 8 C16.61703444 7.51300383 14.96816352 6.16604109 12 3 C8.98509443 1.99503148 6.95818308 1.89664697 3.8125 1.9375 C2.91144531 1.94652344 2.01039062 1.95554687 1.08203125 1.96484375 C0.05142578 1.98224609 0.05142578 1.98224609 -1 2 C-0.67 1.34 -0.34 0.68 0 0 Z " fill="#555554" transform="translate(18,75)"/>
<path d="M0 0 C0.88365234 0.01804687 1.76730469 0.03609375 2.67773438 0.0546875 C4.84812543 0.10161487 7.01795519 0.17335269 9.1875 0.25 C9.1875 0.58 9.1875 0.91 9.1875 1.25 C7.82818359 1.30607422 7.82818359 1.30607422 6.44140625 1.36328125 C-0.85770269 1.75720141 -7.0113907 2.55300838 -13.8125 5.25 C-13.8125 5.91 -13.8125 6.57 -13.8125 7.25 C-14.4725 7.25 -15.1325 7.25 -15.8125 7.25 C-13.20037263 -0.58638212 -7.07410227 -0.27431269 0 0 Z " fill="#818180" transform="translate(56.8125,80.75)"/>
<path d="M0 0 C0.83144531 0.00451172 1.66289063 0.00902344 2.51953125 0.01367188 C4.55471897 0.02536836 6.58986923 0.04330065 8.625 0.0625 C8.625 0.3925 8.625 0.7225 8.625 1.0625 C8.01503174 1.11784912 7.40506348 1.17319824 6.77661133 1.23022461 C3.99664727 1.48405316 1.21707876 1.74198775 -1.5625 2 C-3.00206055 2.13051758 -3.00206055 2.13051758 -4.47070312 2.26367188 C-5.40205078 2.35068359 -6.33339844 2.43769531 -7.29296875 2.52734375 C-8.14656982 2.605896 -9.0001709 2.68444824 -9.87963867 2.76538086 C-12.4154426 3.06731544 -14.87859947 3.52881375 -17.375 4.0625 C-15.375 1.0625 -15.375 1.0625 -12.8359375 0.37890625 C-8.54212667 -0.01364305 -4.30863348 -0.04466685 0 0 Z " fill="#CDCDCD" transform="translate(87.375,136.9375)"/>
<path d="M0 0 C2.27076842 -0.02699725 4.54162821 -0.04639453 6.8125 -0.0625 C8.07707031 -0.07410156 9.34164062 -0.08570312 10.64453125 -0.09765625 C14 0 14 0 17 1 C17 1.66 17 2.32 17 3 C17.99 3 18.98 3 20 3 C20 5.97 20 8.94 20 12 C19.67 12 19.34 12 19 12 C18.731875 10.865625 18.46375 9.73125 18.1875 8.5625 C17.795625 7.386875 17.40375 6.21125 17 5 C16.01 4.67 15.02 4.34 14 4 C13.67 3.34 13.34 2.68 13 2 C9.95418731 1.53045739 9.95418731 1.53045739 6.4375 1.375 C5.23996094 1.30023438 4.04242188 1.22546875 2.80859375 1.1484375 C1.41833984 1.07496094 1.41833984 1.07496094 0 1 C0 0.67 0 0.34 0 0 Z " fill="#A8A9A9" transform="translate(147,83)"/>
<path d="M0 0 C0.33 0 0.66 0 1 0 C0.50311992 8.02408469 -0.01974901 16.01795622 -1 24 C-1.33 24 -1.66 24 -2 24 C-2.05819424 20.75007554 -2.09366116 17.50028565 -2.125 14.25 C-2.14175781 13.32960937 -2.15851563 12.40921875 -2.17578125 11.4609375 C-2.18222656 10.57148438 -2.18867188 9.68203125 -2.1953125 8.765625 C-2.20578613 7.94868164 -2.21625977 7.13173828 -2.22705078 6.29003906 C-1.97829916 3.78112482 -1.25700129 2.16604375 0 0 Z " fill="#AAAAAA" transform="translate(162,138)"/>
<path d="M0 0 C1.65 0 3.3 0 5 0 C5 0.66 5 1.32 5 2 C6.32 2.33 7.64 2.66 9 3 C9 3.99 9 4.98 9 6 C3.39 6 -2.22 6 -8 6 C-8 5.67 -8 5.34 -8 5 C-1.565 4.505 -1.565 4.505 5 4 C3.35 3.01 1.7 2.02 0 1 C0 0.67 0 0.34 0 0 Z " fill="#626262" transform="translate(124,75)"/>
<path d="M0 0 C0.99 0.33 1.98 0.66 3 1 C3.33 2.65 3.66 4.3 4 6 C4.33 6 4.66 6 5 6 C4.67 11.94 4.34 17.88 4 24 C3.67 24 3.34 24 3 24 C2.67 17.07 2.34 10.14 2 3 C1.34 3 0.68 3 0 3 C0 2.01 0 1.02 0 0 Z " fill="#AAAAAB" transform="translate(101,85)"/>
<path d="M0 0 C1.10408203 0.01353516 1.10408203 0.01353516 2.23046875 0.02734375 C4.0287888 0.05069856 5.82693911 0.08656164 7.625 0.125 C7.955 0.785 8.285 1.445 8.625 2.125 C7.48224609 2.10759766 7.48224609 2.10759766 6.31640625 2.08984375 C-0.01340322 2.03452706 -6.10055549 2.2884074 -12.375 3.125 C-12.375 3.785 -12.375 4.445 -12.375 5.125 C-13.365 4.795 -14.355 4.465 -15.375 4.125 C-14.375 2.125 -14.375 2.125 -11.8359375 1.0078125 C-7.77086845 -0.02910127 -4.16766632 -0.09797407 0 0 Z " fill="#BDBDBC" transform="translate(55.375,72.875)"/>
<path d="M0 0 C0.99 0.33 1.98 0.66 3 1 C1.28211261 2.34783459 -0.4498097 3.67779443 -2.1875 5 C-3.15042969 5.7425 -4.11335938 6.485 -5.10546875 7.25 C-8.13138689 9.07943499 -9.54751479 9.40394708 -13 9 C-13 8.34 -13 7.68 -13 7 C-12.14535156 6.57847656 -11.29070312 6.15695313 -10.41015625 5.72265625 C-9.30542969 5.17480469 -8.20070313 4.62695312 -7.0625 4.0625 C-5.96035156 3.51722656 -4.85820313 2.97195312 -3.72265625 2.41015625 C-1.15205586 1.25295022 -1.15205586 1.25295022 0 0 Z " fill="#C5C5C5" transform="translate(128,185)"/>
<path d="M0 0 C0.33 0.66 0.66 1.32 1 2 C-1.77077198 2.16774403 -4.54160927 2.33423936 -7.3125 2.5 C-8.49102539 2.57154297 -8.49102539 2.57154297 -9.69335938 2.64453125 C-10.8293457 2.71220703 -10.8293457 2.71220703 -11.98828125 2.78125 C-12.68477783 2.82314453 -13.38127441 2.86503906 -14.09887695 2.90820312 C-15.73096966 2.98700971 -17.36600579 3 -19 3 C-14.22517981 -1.77482019 -6.21118109 -1.68530953 0 0 Z " fill="#C6C6C6" transform="translate(32,71)"/>
<path d="M0 0 C0.69738281 0.00451172 1.39476563 0.00902344 2.11328125 0.01367188 C3.82555803 0.0253998 5.53779033 0.04333347 7.25 0.0625 C7.25 0.3925 7.25 0.7225 7.25 1.0625 C0.15294338 2.40745828 -6.5225395 3.30341535 -13.75 3.0625 C-9.89613572 -0.79136428 -5.17421968 -0.06357737 0 0 Z " fill="#D2D2D2" transform="translate(90.75,69.9375)"/>
<path d="M0 0 C5.94 0 11.88 0 18 0 C18 0.66 18 1.32 18 2 C18.639375 2.12375 19.27875 2.2475 19.9375 2.375 C20.9584375 2.684375 20.9584375 2.684375 22 3 C22.33 3.66 22.66 4.32 23 5 C22.01 5 21.02 5 20 5 C20 4.34 20 3.68 20 3 C19.195625 3.020625 18.39125 3.04125 17.5625 3.0625 C15 3 15 3 14 2 C11.65012738 1.76472227 9.29443961 1.58613583 6.9375 1.4375 C5.64714844 1.35371094 4.35679688 1.26992187 3.02734375 1.18359375 C1.52880859 1.09271484 1.52880859 1.09271484 0 1 C0 0.67 0 0.34 0 0 Z " fill="#C6C6C6" transform="translate(49,72)"/>
<path d="M0 0 C1.65 0 3.3 0 5 0 C5 0.66 5 1.32 5 2 C6.11375 1.79375 7.2275 1.5875 8.375 1.375 C9.57125 1.25125 10.7675 1.1275 12 1 C12.66 1.66 13.32 2.32 14 3 C10.69628826 5.2024745 9.83121331 5.5345879 6 5 C2.6875 3.0625 2.6875 3.0625 0 1 C0 0.67 0 0.34 0 0 Z " fill="#B0B0B0" transform="translate(64,75)"/>
<path d="M0 0 C0.78503906 -0.00386719 1.57007813 -0.00773437 2.37890625 -0.01171875 C8.24669213 -0.00165394 8.24669213 -0.00165394 10.5 1.125 C10.17 1.785 9.84 2.445 9.5 3.125 C8.95214844 2.96257812 8.40429688 2.80015625 7.83984375 2.6328125 C5.18717637 2.05710839 2.77594538 1.99247311 0.0625 2 C-0.86433594 1.99742188 -1.79117188 1.99484375 -2.74609375 1.9921875 C-5.42865981 2.12155948 -7.88568718 2.52717166 -10.5 3.125 C-10.5 2.465 -10.5 1.805 -10.5 1.125 C-7.21855481 -0.51572259 -3.60210004 -0.01774434 0 0 Z " fill="#C2C2C2" transform="translate(154.5,71.875)"/>
<path d="M0 0 C0.9796875 -0.01417969 1.959375 -0.02835937 2.96875 -0.04296875 C5.5 0.1875 5.5 0.1875 7.5 2.1875 C4.5719073 3.0231429 1.91823857 3.34955486 -1.125 3.375 C-2.28902344 3.39626953 -2.28902344 3.39626953 -3.4765625 3.41796875 C-5.5 3.1875 -5.5 3.1875 -7.5 1.1875 C-4.89820337 -0.11339831 -2.9030812 0.01909922 0 0 Z " fill="#A8A8A8" transform="translate(88.5,4.8125)"/>
<path d="M0 0 C0 0.66 0 1.32 0 2 C-1.6210103 2.69685498 -3.24696066 3.38222861 -4.875 4.0625 C-5.77992187 4.44535156 -6.68484375 4.82820312 -7.6171875 5.22265625 C-10 6 -10 6 -12 5 C-12.33 4.34 -12.66 3.68 -13 3 C-11.58603098 2.49242138 -10.16868271 1.99425075 -8.75 1.5 C-7.96109375 1.2215625 -7.1721875 0.943125 -6.359375 0.65625 C-4 0 -4 0 0 0 Z " fill="#898989" transform="translate(74,136)"/>
<path d="M0 0 C0 0.33 0 0.66 0 1 C-1.08667969 1.18175781 -1.08667969 1.18175781 -2.1953125 1.3671875 C-7.28497573 2.24939579 -12.14883346 3.16442347 -17 5 C-16.67 3.68 -16.34 2.36 -16 1 C-10.61509359 0.08342019 -5.45769811 -0.11138159 0 0 Z " fill="#BCBCBC" transform="translate(95,72)"/>
<path d="M0 0 C4.77609498 1.64178265 8.79382904 4.26546702 13 7 C10 8 10 8 7.51953125 6.85546875 C6.62621094 6.30503906 5.73289062 5.75460938 4.8125 5.1875 C3.91144531 4.64480469 3.01039062 4.10210937 2.08203125 3.54296875 C1.39496094 3.03378906 0.70789062 2.52460938 0 2 C0 1.34 0 0.68 0 0 Z " fill="#C5C5C5" transform="translate(49,185)"/>
<path d="M0 0 C0.66 0 1.32 0 2 0 C1.63118644 6.14689273 0.09949571 8.69027374 -4 13 C-5 10 -5 10 -4.00390625 7.51953125 C-3.52824219 6.62621094 -3.05257812 5.73289063 -2.5625 4.8125 C-2.08941406 3.91144531 -1.61632812 3.01039063 -1.12890625 2.08203125 C-0.75636719 1.39496094 -0.38382813 0.70789063 0 0 Z " fill="#C5C5C5" transform="translate(138,171)"/>
<path d="M0 0 C-7.71028037 5.14018692 -7.71028037 5.14018692 -11.875 4.6875 C-12.57625 4.460625 -13.2775 4.23375 -14 4 C-14 3.67 -14 3.34 -14 3 C-12.35 3 -10.7 3 -9 3 C-9 2.34 -9 1.68 -9 1 C-5.8035914 -0.06546953 -3.34252724 -0.07427838 0 0 Z " fill="#9E9E9C" transform="translate(52,75)"/>
<path d="M0 0 C0.66 0.33 1.32 0.66 2 1 C-1.66666667 4.66666667 -5.33333333 8.33333333 -9 12 C-8.49897679 7.65779887 -5.85962472 5.13196993 -3 2 C-2.01 1.34 -1.02 0.68 0 0 Z " fill="#CBCBCB" transform="translate(52,147)"/>
<path d="M0 0 C4.10839064 1.45002023 7.50344613 3.3979134 11 6 C11 6.66 11 7.32 11 8 C6.80639551 7.32902328 3.59665648 5.1441606 0 3 C0 2.01 0 1.02 0 0 Z " fill="#969696" transform="translate(121,141)"/>
<path d="M0 0 C0.90105469 0.00902344 1.80210938 0.01804687 2.73046875 0.02734375 C3.41753906 0.03894531 4.10460937 0.05054687 4.8125 0.0625 C4.8125 0.7225 4.8125 1.3825 4.8125 2.0625 C4.06484375 2.12308594 3.3171875 2.18367188 2.546875 2.24609375 C1.56203125 2.32988281 0.5771875 2.41367188 -0.4375 2.5 C-1.41203125 2.58121094 -2.3865625 2.66242188 -3.390625 2.74609375 C-5.75211753 3.01324584 -7.90651065 3.41621968 -10.1875 4.0625 C-7.31165958 -0.25126064 -4.86003916 -0.06311739 0 0 Z " fill="#A3A3A3" transform="translate(124.1875,81.9375)"/>
<path d="M0 0 C1.03930664 0.02030273 1.03930664 0.02030273 2.09960938 0.04101562 C3.79591265 0.07611155 5.49181136 0.12991057 7.1875 0.1875 C7.1875 0.5175 7.1875 0.8475 7.1875 1.1875 C6.28386719 1.23648438 5.38023438 1.28546875 4.44921875 1.3359375 C3.26972656 1.41070312 2.09023438 1.48546875 0.875 1.5625 C-0.88263672 1.66691406 -0.88263672 1.66691406 -2.67578125 1.7734375 C-5.96949887 1.97363747 -5.96949887 1.97363747 -8.8125 4.1875 C-11 3.8125 -11 3.8125 -12.8125 3.1875 C-8.59904502 0.07036146 -5.0714095 -0.18926791 0 0 Z " fill="#6D6D6D" transform="translate(25.8125,79.8125)"/>
<path d="M0 0 C0.66 0.33 1.32 0.66 2 1 C1.071875 2.546875 1.071875 2.546875 0.125 4.125 C-1.70698045 7.31472483 -2.9635747 10.45888021 -4 14 C-4.33 14 -4.66 14 -5 14 C-4.7444669 8.13551546 -4.34242429 4.34242429 0 0 Z " fill="#9D9D9D" transform="translate(44,152)"/>
<path d="M0 0 C0.66 0.99 1.32 1.98 2 3 C0.18884044 4.81115956 -2.61278227 4.38199448 -5.0625 4.5625 C-6.16722656 4.64628906 -7.27195313 4.73007812 -8.41015625 4.81640625 C-9.26480469 4.87699219 -10.11945312 4.93757813 -11 5 C-8.00439195 1.56332083 -5.47595858 1.49732873 -1 1 C-0.67 0.67 -0.34 0.34 0 0 Z " fill="#7D7D7D" transform="translate(40,37)"/>
<path d="M0 0 C2.14729141 0.28073073 4.29283193 0.57488499 6.4375 0.875 C7.63246094 1.03742188 8.82742187 1.19984375 10.05859375 1.3671875 C11.51458984 1.68042969 11.51458984 1.68042969 13 2 C13.33 2.66 13.66 3.32 14 4 C11.69 4 9.38 4 7 4 C7 3.34 7 2.68 7 2 C4.69 2 2.38 2 0 2 C0 1.34 0 0.68 0 0 Z " fill="#CBCBCB" transform="translate(97,137)"/>
<path d="M0 0 C1.98 0.66 3.96 1.32 6 2 C5.67 2.66 5.34 3.32 5 4 C4.34 4 3.68 4 3 4 C2.67 4.99 2.34 5.98 2 7 C2 6.34 2 5.68 2 5 C0.35 4.67 -1.3 4.34 -3 4 C-2.01 3.67 -1.02 3.34 0 3 C0 2.01 0 1.02 0 0 Z " fill="#717171" transform="translate(133,78)"/>
<path d="M0 0 C-1.69179328 2.04219706 -2.63727666 2.91793306 -5.26171875 3.51171875 C-6.06222656 3.56972656 -6.86273438 3.62773438 -7.6875 3.6875 C-8.49574219 3.75324219 -9.30398437 3.81898437 -10.13671875 3.88671875 C-10.75160156 3.92410156 -11.36648437 3.96148437 -12 4 C-7.47239812 0.98159875 -5.47631692 -0.24339186 0 0 Z " fill="#B6B6B4" transform="translate(116,74)"/>
<path d="M0 0 C0.33 0 0.66 0 1 0 C1 1.65 1 3.3 1 5 C4.27773504 4.24849977 4.27773504 4.24849977 6 1 C6.99 1.33 7.98 1.66 9 2 C3.375 7 3.375 7 0 7 C0 4.69 0 2.38 0 0 Z " fill="#818181" transform="translate(4,77)"/>
<path d="M0 0 C0.33 0 0.66 0 1 0 C1 3.66666667 1 7.33333333 1 11 C-0.98 11.66 -2.96 12.32 -5 13 C-3.84826645 10.53199953 -2.95216435 8.95216435 -1 7 C-0.59952556 4.67724823 -0.2602896 2.34260643 0 0 Z " fill="#828282" transform="translate(11,63)"/>
<path d="M0 0 C0.99 0.66 1.98 1.32 3 2 C-2.078125 5.22265625 -2.078125 5.22265625 -4 6 C-5.32 5.67 -6.64 5.34 -8 5 C-4.04 2.525 -4.04 2.525 0 0 Z " fill="#3B3B3B" transform="translate(145,79)"/>
<path d="M0 0 C0.79921875 0.01804687 1.5984375 0.03609375 2.421875 0.0546875 C3.02515625 0.07789062 3.6284375 0.10109375 4.25 0.125 C4.25 0.455 4.25 0.785 4.25 1.125 C3.05375 1.41375 1.8575 1.7025 0.625 2 C-2.89726836 2.8774334 -6.32201821 3.92520637 -9.75 5.125 C-8.75 2.125 -8.75 2.125 -6.984375 0.9453125 C-4.49281777 0.03057995 -2.64383164 -0.07775975 0 0 Z " fill="#444444" transform="translate(151.75,75.875)"/>
<path d="M0 0 C0.66 0.66 1.32 1.32 2 2 C-3.75 6 -3.75 6 -6 6 C-6.33 6.66 -6.66 7.32 -7 8 C-6.4376049 4.73810844 -5.5859495 3.08865152 -3 1 C-2.01 0.67 -1.02 0.34 0 0 Z " fill="#4C4C4A" transform="translate(111,78)"/>
<path d="M0 0 C2.3125 0.1875 2.3125 0.1875 4 1 C2.02579865 3.52259061 1.03254358 3.9929808 -2.1875 4.6875 C-3.5796875 4.8421875 -3.5796875 4.8421875 -5 5 C-2.75 2.4375 -2.75 2.4375 0 0 Z " fill="#AEAEAE" transform="translate(16,73)"/>
<path d="M0 0 C0.66 0.99 1.32 1.98 2 3 C1.01 4.485 1.01 4.485 0 6 C-0.66 6 -1.32 6 -2 6 C-2.33 7.32 -2.66 8.64 -3 10 C-3.66 9.67 -4.32 9.34 -5 9 C-3.35 6.03 -1.7 3.06 0 0 Z " fill="#9B9B9B" transform="translate(25,44)"/>
<path d="M0 0 C1.39195915 4.17587745 -0.17676781 6.13474776 -2 10 C-2.99 10 -3.98 10 -5 10 C-3.33333333 6.66666667 -1.66666667 3.33333333 0 0 Z " fill="#9C9C9C" transform="translate(138,168)"/>
<path d="M0 0 C1.98 0.66 3.96 1.32 6 2 C5.01 3.32 4.02 4.64 3 6 C1.68 5.67 0.36 5.34 -1 5 C-0.34 4.67 0.32 4.34 1 4 C0.67 2.68 0.34 1.36 0 0 Z " fill="#6D6D6B" transform="translate(101,78)"/>
<path d="M0 0 C0.33 0.66 0.66 1.32 1 2 C2.65 2 4.3 2 6 2 C4 4 4 4 0.875 4.125 C-0.548125 4.063125 -0.548125 4.063125 -2 4 C-2.33 3.01 -2.66 2.02 -3 1 C-2.01 0.67 -1.02 0.34 0 0 Z " fill="#C7C7C5" transform="translate(103,73)"/>
<path d="M0 0 C0.66 0.33 1.32 0.66 2 1 C2.625 3.5625 2.625 3.5625 3 6 C0.69 5.67 -1.62 5.34 -4 5 C-3.01 4.67 -2.02 4.34 -1 4 C-0.26676204 1.98491642 -0.26676204 1.98491642 0 0 Z " fill="#A8A8A8" transform="translate(76,258)"/>
<path d="M0 0 C-2.8125 2.0625 -2.8125 2.0625 -6 4 C-6.99 3.67 -7.98 3.34 -9 3 C-5.83583464 -0.30799106 -4.50236011 -1.35070803 0 0 Z " fill="#CACACA" transform="translate(64,143)"/>
<path d="M0 0 C-0.1875 1.875 -0.1875 1.875 -1 4 C-3.5625 5.25 -3.5625 5.25 -6 6 C-6 5.01 -6 4.02 -6 3 C-2.66666667 0 -2.66666667 0 0 0 Z " fill="#616161" transform="translate(78,78)"/>
<path d="M0 0 C-2.5654594 2.5654594 -4.47686668 2.54046087 -8 3 C-8.33 2.34 -8.66 1.68 -9 1 C-3.375 -1.125 -3.375 -1.125 0 0 Z " fill="#A1A1A1" transform="translate(147,85)"/>
</svg>
